<?xml version="1.0" encoding="utf-8"?>
<!-- Generator: Adobe Illustrator 20.1.0, SVG Export Plug-In . SVG Version: 6.00 Build 0)  -->
<svg version="1.1" id="Layer_1" xmlns="http://www.w3.org/2000/svg" xmlns:xlink="http://www.w3.org/1999/xlink" x="0px" y="0px"
	 viewBox="0 0 2059.5 2059.5" style="enable-background:new 0 0 2059.5 2059.5;" xml:space="preserve">
<style type="text/css">
	.st0{fill:url(#SVGID_1_);}
	.st1{fill:url(#SVGID_2_);stroke:#E07A27;stroke-width:14;stroke-miterlimit:10;}
	.st2{clip-path:url(#SVGID_4_);}
	.st3{fill:url(#SVGID_5_);}
	.st4{fill:#E07A27;}
	.st5{fill:url(#SVGID_6_);}
	.st6{fill:url(#SVGID_7_);}
	.st7{opacity:0.44;fill:url(#SVGID_8_);}
</style>
<g>
	<radialGradient id="SVGID_1_" cx="1029.7411" cy="1029.7411" r="1029.7411" gradientUnits="userSpaceOnUse">
		<stop  offset="1.183421e-02" style="stop-color:#172742"/>
		<stop  offset="0.2959" style="stop-color:#243061;stop-opacity:0.7125"/>
		<stop  offset="0.7643" style="stop-color:#383F8E;stop-opacity:0.2385"/>
		<stop  offset="1" style="stop-color:#4044A0;stop-opacity:0"/>
	</radialGradient>
	<circle class="st0" cx="1029.7" cy="1029.7" r="1029.7"/>
	<radialGradient id="SVGID_2_" cx="921.7411" cy="1289.7411" r="680" gradientUnits="userSpaceOnUse">
		<stop  offset="0" style="stop-color:#ED9326"/>
		<stop  offset="0.5047" style="stop-color:#E17D23"/>
		<stop  offset="1" style="stop-color:#D86B21"/>
	</radialGradient>
	<circle class="st1" cx="1029.7" cy="1029.7" r="680"/>
	<g>
		<defs>
			
				<ellipse id="SVGID_3_" transform="matrix(0.9343 -0.3566 0.3566 0.9343 -299.4776 434.8368)" cx="1029.7" cy="1029.7" rx="680" ry="680"/>
		</defs>
		<clipPath id="SVGID_4_">
			<use xlink:href="#SVGID_3_"  style="overflow:visible;"/>
		</clipPath>
		<g class="st2">
			<g>
				<linearGradient id="SVGID_5_" gradientUnits="userSpaceOnUse" x1="859.249" y1="1838.5029" x2="1304.6487" y2="1378.2926">
					<stop  offset="0" style="stop-color:#ED9326"/>
					<stop  offset="1" style="stop-color:#D86B21"/>
				</linearGradient>
				<path class="st3" d="M622.2,1608.2c0,0,408-336,920,0C1542.2,1608.2,1038.2,2044.2,622.2,1608.2z"/>
				<path class="st4" d="M621.7,1607.6c15.7-13.3,32.5-25.1,49.8-36.3c8.6-5.6,17.4-10.9,26.3-16.1c4.4-2.6,8.9-5.1,13.4-7.7
					c4.5-2.4,9-5,13.6-7.3c9.1-4.8,18.3-9.4,27.6-13.9c9.3-4.4,18.7-8.7,28.1-12.7c18.9-8.1,38.2-15.5,57.7-22
					c19.5-6.6,39.3-12.3,59.4-17.3c20-4.9,40.2-9.1,60.6-12.4c5.1-0.8,10.2-1.6,15.3-2.3l15.3-2l15.4-1.6c2.6-0.3,5.1-0.5,7.7-0.7
					l7.7-0.6c20.6-1.5,41.2-2.1,61.9-1.8c20.6,0.4,41.2,1.7,61.7,3.8c20.5,2.2,40.9,5.3,61.1,9c10.1,2.1,20.2,4,30.2,6.4l7.5,1.7
					c2.5,0.6,5,1.1,7.5,1.8l14.9,3.9l3.7,1l3.7,1.1l7.4,2.1c4.9,1.5,9.9,2.7,14.8,4.4l14.7,4.6c2.5,0.7,4.9,1.6,7.3,2.4l7.3,2.5
					l7.3,2.5l3.6,1.2l3.6,1.3l14.4,5.4c4.8,1.7,9.6,3.7,14.3,5.6c4.8,1.9,9.5,3.8,14.3,5.8l14.1,6.1l7.1,3l7,3.2l14,6.4
					c2.3,1,4.6,2.2,6.9,3.3l6.9,3.4l6.9,3.4c2.3,1.1,4.6,2.2,6.9,3.4l13.6,7.1l6.8,3.6c2.3,1.2,4.5,2.5,6.7,3.7l13.5,7.4
					c4.5,2.4,8.9,5.1,13.3,7.7l13.3,7.8c8.8,5.3,17.5,10.8,26.2,16.1l4,2.5l-3.6,3.2c-8.2,7.1-16.5,13.8-25,20.3
					c-8.5,6.6-17,12.9-25.7,19.2c-17.4,12.5-35.2,24.4-53.4,35.6c-18.2,11.3-36.8,21.9-55.8,31.9c-19,10-38.3,19.3-57.9,28
					c-39.3,17.3-79.9,31.7-121.5,42.5c-20.8,5.4-41.9,9.9-63.2,13.2c-21.3,3.4-42.7,5.7-64.3,6.9c-21.5,1-43.1,1-64.7-0.3l-8.1-0.6
					c-2.7-0.2-5.4-0.3-8.1-0.7l-16.1-1.7c-5.3-0.7-10.7-1.5-16-2.2l-4-0.6c-1.3-0.2-2.7-0.5-4-0.7l-8-1.5c-21.2-4-42.2-9-62.7-15.6
					c-2.6-0.8-5.2-1.5-7.7-2.4l-7.6-2.7l-7.6-2.7l-3.8-1.3l-3.8-1.5l-15-6c-5-2.1-9.8-4.3-14.8-6.5c-2.5-1.1-4.9-2.2-7.4-3.3
					l-7.2-3.6l-7.2-3.6c-2.4-1.2-4.8-2.3-7.2-3.7l-14.1-7.8l-3.5-1.9c-1.2-0.7-2.3-1.4-3.5-2.1l-6.9-4.2l-6.9-4.2l-3.4-2.1l-3.4-2.2
					l-13.4-8.8c-1.1-0.7-2.2-1.5-3.3-2.2l-3.3-2.3l-6.5-4.7l-6.5-4.7l-3.3-2.3l-3.2-2.5c-8.4-6.6-17-13-25-20.1
					c-4.1-3.5-8.2-6.9-12.2-10.4l-11.8-10.8l-5.9-5.4c-1.9-1.8-3.8-3.7-5.7-5.6l-11.4-11.3l-2.8-2.8l-2.7-2.9l-5.5-5.8l-11.4-12.2
					L621.7,1607.6z M623.3,1608.2l10.9,10.5l5.8,5.5l2.9,2.8l3,2.7l11.9,10.6c2,1.8,3.9,3.6,6,5.3l6.1,5.1l12.2,10.2
					c4.1,3.3,8.4,6.5,12.5,9.8c8.3,6.6,17,12.7,25.5,18.9l3.2,2.3l3.3,2.2l6.6,4.4l6.6,4.4l3.3,2.2c1.1,0.7,2.3,1.4,3.4,2.1
					l13.5,8.3l3.4,2.1l3.5,1.9l6.9,3.9l6.9,3.9c1.2,0.6,2.3,1.3,3.5,1.9l3.5,1.8l14.1,7.2c2.3,1.2,4.8,2.3,7.1,3.4l7.2,3.3l7.2,3.3
					c2.4,1.1,4.9,2,7.3,3.1c19.3,8.4,39.3,15.2,59.5,21.3c20.1,6.1,40.7,10.6,61.5,14.1c10.3,1.9,20.8,3.1,31.2,4.4l15.7,1.5
					c2.6,0.3,5.2,0.4,7.9,0.5l7.9,0.4c21,1,42,1,63-0.1c21-1.2,41.9-3.5,62.7-6.7c5.2-0.8,10.4-1.6,15.6-2.6l7.8-1.4
					c2.6-0.5,5.2-0.9,7.8-1.5c5.2-1.1,10.3-2.1,15.5-3.3l15.4-3.6c40.9-10.3,81-24,119.9-40.5c19.5-8.3,38.6-17.2,57.5-26.8
					c4.7-2.4,9.4-4.8,14.1-7.3c4.7-2.4,9.3-5,14-7.5c4.7-2.5,9.3-5.1,13.9-7.7c4.6-2.6,9.2-5.2,13.8-7.9c4.6-2.7,9.1-5.4,13.6-8.1
					c4.5-2.7,9-5.5,13.5-8.3c9-5.6,17.9-11.4,26.7-17.3c8.8-5.9,17.5-12,26-18.2c8.5-6.2,17.1-12.6,25.1-19.3l0.4,5.6l-12.8-8.4
					c-4.3-2.8-8.5-5.7-12.8-8.4l-13-8c-4.3-2.7-8.7-5.4-13.1-7.9l-13.2-7.7c-2.2-1.3-4.4-2.6-6.6-3.8l-6.7-3.6l-13.5-7.3
					c-2.2-1.2-4.5-2.3-6.8-3.5l-6.8-3.5l-6.8-3.4c-2.3-1.1-4.6-2.3-6.9-3.4l-13.9-6.5l-6.9-3.2l-7-3l-14.1-6.1
					c-4.7-2-9.5-3.8-14.2-5.7c-4.8-1.8-9.5-3.8-14.3-5.5l-14.4-5.2l-3.6-1.3l-3.6-1.2l-7.3-2.4c-19.4-6.5-39.1-11.8-58.9-16.6
					c-19.8-4.8-39.9-8.5-60-11.7c-20.1-3-40.4-5.3-60.6-6.8c-20.3-1.5-40.6-2.1-60.9-2.1l-15.2,0.2c-2.5,0-5.1,0.1-7.6,0.2l-7.6,0.3
					c-2.5,0.1-5.1,0.1-7.6,0.3l-7.6,0.4l-7.6,0.4c-2.5,0.1-5.1,0.4-7.6,0.6c-20.2,1.5-40.4,3.8-60.5,6.9c-20.1,3.1-40,7-59.8,11.6
					c-19.8,4.6-39.4,10-58.8,16.1c-19.4,6.1-38.6,12.9-57.5,20.4c-18.9,7.5-37.6,15.7-55.9,24.6c-4.6,2.2-9.1,4.5-13.7,6.8
					c-4.5,2.4-9.1,4.6-13.6,7c-9,4.7-17.9,9.7-26.7,14.8c-8.8,5.1-17.6,10.4-26.1,15.9C639.5,1596.8,631.2,1602.3,623.3,1608.2z"/>
			</g>
			<g>
				<linearGradient id="SVGID_6_" gradientUnits="userSpaceOnUse" x1="621.0529" y1="1639.7263" x2="1361.697" y2="874.454">
					<stop  offset="0" style="stop-color:#ED9326"/>
					<stop  offset="1" style="stop-color:#D86B21"/>
				</linearGradient>
				<path class="st5" d="M509.9,1532.2c0,0,195.6-392,571.6-328s315.6,336,707.6,188v-104c0,0-247.2,172-407.2-276
					s-787.9-424-1151.9,92L509.9,1532.2z"/>
				<path class="st4" d="M509.9,1531c3.3-6.6,6.8-13.1,10.4-19.5c3.8-6.7,7.7-13.3,11.8-19.9c8.1-13.1,16.6-26,25.5-38.6
					c4.4-6.3,9-12.5,13.6-18.7c4.6-6.2,9.3-12.3,14.2-18.3c9.6-12.1,19.6-23.9,29.9-35.3c20.7-23,42.9-44.6,66.5-64.6
					c23.6-20,48.8-38.2,75.3-54.3c13.3-8,26.9-15.4,40.9-22.2l5.2-2.5l2.6-1.3l2.7-1.2l10.6-4.8l10.8-4.4c1.8-0.8,3.6-1.5,5.4-2.1
					l5.5-2.1c29.1-10.9,59.4-18.8,90.1-23.6c30.8-4.7,62-6.4,93.1-4.8l5.8,0.3c1.9,0.1,3.9,0.3,5.8,0.4l11.6,0.9l11.6,1.3l5.8,0.7
					l5.8,0.9l11.5,1.7l0.7,0.1l0.8,0.1l1.4,0.3l2.8,0.5l5.7,1l5.7,1c1.9,0.3,3.8,0.8,5.7,1.1l11.4,2.3l11.3,2.6l5.7,1.3l5.6,1.4
					c3.8,1,7.5,1.9,11.3,2.9l11.2,3.1c14.9,4.4,29.7,9.2,44.2,14.6c14.5,5.5,28.8,11.6,42.9,18.3c14,6.7,27.8,13.9,41.2,21.8
					c26.9,15.6,52.3,33.5,76.9,52.2c24.6,18.6,48.4,38.2,73.5,55.7c12.6,8.7,25.4,16.8,38.8,24c13.4,7,27.4,13.1,41.8,17.7
					c14.4,4.5,29.3,7.7,44.4,9.5c15.1,1.8,30.3,2.2,45.6,1.6c15.2-0.6,30.4-2.3,45.5-4.8l5.7-0.9l5.6-1.1c3.8-0.7,7.5-1.4,11.3-2.2
					l11.2-2.4l11.2-2.7c14.9-3.8,29.6-7.9,44.2-12.7c14.6-4.6,29.1-9.8,43.5-15.1l-1.4,2l0.2-52l0.1-52l2.9,1.5
					c-4.5,3-9.1,5.5-13.7,8c-4.7,2.4-9.4,4.7-14.3,6.8c-9.7,4.1-19.7,7.6-29.8,10.4c-10.2,2.7-20.5,4.9-31,6.1
					c-10.5,1.3-21,1.8-31.6,1.4c-10.5-0.3-21-1.5-31.4-3.5c-10.4-2-20.5-4.8-30.5-8.4c-9.9-3.6-19.6-7.9-28.9-12.8
					c-9.3-4.9-18.2-10.6-26.9-16.6l-6.4-4.6l-6.2-4.9c-2.1-1.6-4.1-3.3-6.1-5c-2-1.7-4-3.4-6-5.1c-3.9-3.6-7.8-7-11.5-10.8
					c-1.9-1.9-3.8-3.7-5.6-5.5l-5.4-5.7c-14.4-15.3-27.4-31.9-39.4-49.2c-12-17.3-22.9-35.2-32.9-53.6
					c-10.1-18.4-19.3-37.3-27.8-56.4c-8.5-19.2-16.5-38.6-23.7-58.2l-2.8-7.4l-2.8-7.2l-5.7-14.6l-6.2-14.2l-1.5-3.6l-0.8-1.8
					l-0.8-1.7l-3.4-7l-3.4-7c-0.6-1.2-1.1-2.3-1.7-3.5l-1.8-3.4l-7.3-13.7c-2.5-4.5-5.2-8.9-7.8-13.4l-2-3.3c-0.6-1.1-1.3-2.2-2-3.3
					l-4.2-6.5c-5.5-8.8-11.6-17.1-17.6-25.5l-9.5-12.2l-2.4-3.1l-2.5-3l-5-5.9l-5-5.9l-5.3-5.7l-5.3-5.7l-2.6-2.8
					c-0.9-0.9-1.8-1.8-2.7-2.7l-11-10.9l-11.5-10.4c-15.5-13.6-32-26.2-49.2-37.5c-17.2-11.3-35.4-21.3-54-30.2l-7-3.3l-3.5-1.6
					c-1.2-0.5-2.4-1-3.6-1.5l-14.3-6L1101,731l-3.6-1.3l-3.7-1.2l-7.4-2.4c-2.5-0.8-4.9-1.6-7.4-2.4l-7.5-2.1l-7.5-2.1
					c-1.2-0.3-2.5-0.7-3.7-1l-3.8-0.9c-5-1.2-10-2.4-15.1-3.6l-15.2-3c-20.3-3.7-40.8-6.4-61.4-7.9c-20.6-1.4-41.3-1.7-62-1.1
					c-20.7,0.8-41.3,2.6-61.8,5.2c-10.2,1.6-20.5,2.9-30.6,4.9l-7.6,1.4c-1.3,0.2-2.5,0.4-3.8,0.7l-3.8,0.8l-15.2,3.2
					c-5,1.1-10.1,2.4-15.1,3.7l-7.5,1.9l-7.5,2.1c-5,1.4-10,2.8-15,4.2l-14.8,4.6c-2.5,0.8-5,1.5-7.4,2.4l-7.3,2.5L698,742
					c-2.4,0.8-4.9,1.6-7.3,2.6c-9.7,3.7-19.4,7.2-29,11.2c-19.2,7.7-38,16.5-56.7,25.6c-9.2,4.7-18.5,9.3-27.6,14.4
					c-4.5,2.5-9.1,4.9-13.6,7.5l-13.4,7.8c-2.2,1.3-4.5,2.6-6.7,3.9l-6.6,4.1l-13.2,8.2l-13,8.5l-6.5,4.3c-2.2,1.4-4.3,2.9-6.4,4.4
					l-12.8,8.9l-3.2,2.2l-3.1,2.3l-6.3,4.6c-4.2,3.1-8.4,6.1-12.5,9.3l-12.3,9.6l-6.2,4.8l-6,4.9l-12.1,9.9c-2,1.6-4,3.3-5.9,5
					l-5.9,5.1c-3.9,3.4-7.9,6.7-11.8,10.2c-31,27.7-60.4,57.2-88,88.2c-27.7,31-53.6,63.6-77.8,97.5l0.1-5.3l69.3,107.4l69.2,107.5
					l69,107.6L509.9,1531z M510,1533.3l-71.6-107.1l-70.8-106.4l-70.7-106.5l-70.6-106.6l-1.8-2.7l1.9-2.6
					c24-34.4,49.9-67.5,77.5-99.1c27.7-31.6,57.1-61.6,88.3-89.8c31.2-28.2,64.2-54.3,98.8-78.3c2.2-1.5,4.3-3.1,6.5-4.5l6.6-4.4
					l13.2-8.7l13.4-8.4l6.7-4.2c2.2-1.4,4.5-2.7,6.8-4l13.6-8c4.6-2.6,9.2-5.1,13.8-7.6c9.2-5.2,18.6-9.9,27.9-14.7
					c2.3-1.2,4.7-2.4,7.1-3.5l7.1-3.4l7.1-3.4c1.2-0.6,2.4-1.1,3.6-1.7l3.6-1.6l14.4-6.4c1.2-0.5,2.4-1.1,3.6-1.6l3.7-1.5l7.3-3
					c9.7-4.1,19.6-7.7,29.4-11.4c2.5-1,5-1.8,7.4-2.6l7.5-2.6l7.5-2.6c2.5-0.9,5-1.6,7.5-2.4l15.1-4.7c5.1-1.5,10.1-2.8,15.2-4.2
					l7.6-2.1l7.7-1.9c5.1-1.2,10.2-2.6,15.4-3.7c20.6-4.6,41.4-8.3,62.2-11.1c20.9-2.6,42-4.4,63.1-5.1c21.1-0.5,42.2-0.1,63.3,1.4
					c21,1.7,42,4.5,62.8,8.4l15.5,3.2c5.1,1.2,10.3,2.5,15.4,3.8l3.8,0.9c1.3,0.3,2.5,0.7,3.8,1.1l7.6,2.2l7.6,2.2
					c2.5,0.8,5,1.7,7.5,2.5l7.5,2.5l3.8,1.2l3.7,1.4l14.8,5.6l14.6,6.2c1.2,0.5,2.4,1,3.6,1.6l3.6,1.7l7.2,3.4
					c19,9.2,37.5,19.5,55.1,31.2c17.6,11.8,34.3,24.8,50.1,38.8l11.7,10.7l11.2,11.2c0.9,0.9,1.9,1.9,2.8,2.8l2.7,2.9l5.3,5.8
					l5.3,5.9l5.1,6.1l5.1,6.1l2.5,3l2.4,3.1l9.6,12.6c6,8.7,12.2,17.2,17.7,26.2l4.2,6.7c0.7,1.1,1.4,2.2,2,3.4l2,3.4
					c2.6,4.6,5.3,9.1,7.8,13.7l7.3,14l1.8,3.5c0.6,1.2,1.1,2.4,1.7,3.6l3.3,7.2l3.3,7.2l0.8,1.8l0.8,1.8l1.5,3.7l6.1,14.6l5.5,14.7
					l2.7,7.4l2.6,7.3c7,19.6,14.6,39,22.8,58.1c8.2,19.1,17.1,38,26.9,56.3c9.8,18.4,20.3,36.3,32,53.5c11.7,17.2,24.3,33.7,38.4,49
					l5.3,5.7c1.8,1.9,3.7,3.7,5.5,5.5c3.6,3.7,7.5,7.2,11.3,10.7c1.9,1.8,3.9,3.4,5.9,5.1c2,1.7,3.9,3.4,6,5l6.1,4.8l6.3,4.6
					c8.4,6,17.2,11.6,26.3,16.5c9.1,4.9,18.6,9.2,28.3,12.7c19.4,7.1,40,11.1,60.7,11.8c10.3,0.3,20.7-0.1,31-1.3
					c10.3-1.2,20.5-3.3,30.5-5.9c10-2.7,19.8-6.2,29.3-10.2c4.8-2.1,9.4-4.3,14-6.7c4.6-2.4,9.1-5,13.3-7.8l2.9-1.9l0,3.4l0.1,52
					l0.2,52l0,1.5l-1.4,0.5c-14.4,5.4-28.9,10.8-43.6,15.5c-14.6,4.9-29.5,9.3-44.4,13.3l-11.2,2.9l-11.3,2.6
					c-3.8,0.9-7.6,1.6-11.4,2.4l-5.7,1.1l-5.7,1c-15.3,2.7-30.7,4.6-46.2,5.5c-15.5,0.9-31.1,0.7-46.7-0.9
					c-15.5-1.6-30.9-4.6-45.9-9.1c-15-4.5-29.5-10.6-43.4-17.6c-13.9-7.1-27.2-15.3-40-24c-25.7-17.5-49.8-36.7-74.4-55.1
					c-12.3-9.2-24.7-18.1-37.4-26.7c-12.7-8.6-25.6-16.7-38.8-24.3c-26.4-15.3-54.1-28.3-82.6-39.1c-14.3-5.4-28.8-10.2-43.4-14.5
					l-11-3.1c-3.7-1-7.4-1.9-11.1-2.9l-5.5-1.4l-5.6-1.3l-11.2-2.6l-11.2-2.3c-1.9-0.4-3.7-0.8-5.6-1.1l-5.7-1l-5.7-1l-2.8-0.5
					l-1.4-0.3l-0.7-0.1l-0.7-0.1l-11.3-1.7l-5.6-0.9l-5.7-0.7l-11.3-1.3l-11.4-1c-1.9-0.1-3.8-0.3-5.7-0.5l-5.7-0.3
					c-15.2-0.9-30.5-0.8-45.7-0.2l-11.4,0.6c-3.8,0.3-7.6,0.7-11.4,1c-1.9,0.2-3.8,0.3-5.7,0.5l-5.7,0.7l-5.7,0.7
					c-1.9,0.2-3.8,0.5-5.7,0.8l-11.3,1.8c-3.8,0.6-7.5,1.4-11.2,2.1c-1.9,0.4-3.7,0.7-5.6,1.1l-5.6,1.3l-5.6,1.3l-2.8,0.6l-2.8,0.7
					l-11.1,2.9l-11,3.3c-3.7,1-7.3,2.3-10.9,3.5l-5.4,1.8l-5.4,2l-5.4,2c-1.8,0.6-3.6,1.3-5.3,2l-10.6,4.3l-10.5,4.6l-2.6,1.1
					l-2.6,1.2l-5.2,2.4c-13.8,6.5-27.3,13.7-40.5,21.4c-13.2,7.8-26,16.1-38.5,24.9c-12.5,8.8-24.7,18-36.6,27.8
					c-23.7,19.4-45.9,40.6-66.9,63c-20.9,22.4-40.5,46.1-58.8,70.9c-9.1,12.4-17.9,25-26.2,37.9c-8.4,12.9-16.4,26-23.7,39.6
					L510,1533.3z"/>
			</g>
			<g>
				<linearGradient id="SVGID_7_" gradientUnits="userSpaceOnUse" x1="1412.8542" y1="156.4765" x2="1147.6106" y2="790.4735">
					<stop  offset="0" style="stop-color:#ED9326"/>
					<stop  offset="1" style="stop-color:#D86B21"/>
				</linearGradient>
				<path class="st6" d="M1742.2,1164.2c0,0-4-436-392-544s-404,100-824-148c0,0,512-412,976-28S1742.2,1164.2,1742.2,1164.2z"/>
				<path class="st4" d="M1741.5,1164.2c-0.7-16.3-2.5-32.6-4.7-48.8c-2.2-16.2-5-32.3-8.2-48.3c-3.3-16-7-31.9-11.3-47.7
					c-4.3-15.7-9.1-31.3-14.4-46.8c-10.6-30.8-23.5-60.9-38.5-89.7c-15.1-28.8-32.5-56.4-52.4-82.1c-9.9-12.9-20.4-25.2-31.5-37.1
					c-11.1-11.9-22.8-23.1-35-33.7c-6.1-5.4-12.4-10.4-18.7-15.5l-9.7-7.3l-2.4-1.8l-2.5-1.8l-4.9-3.5c-13.2-9.3-26.9-18.1-41-26
					c-14.1-7.9-28.6-15.3-43.4-21.8l-5.5-2.5c-1.8-0.8-3.7-1.5-5.6-2.3l-11.3-4.6l-11.4-4.2l-5.7-2.1l-5.8-1.9L1366,631l-11.7-3.5
					l-5.7-1.7l-5.9-1.6l-11.9-3.1l-11.9-3.1c-2-0.5-4-1.1-5.9-1.5l-5.9-1.4l-23.8-5.4c-31.9-6.7-64-11.9-96.4-15.1l-12.2-1l-6.1-0.5
					l-3-0.3l-3-0.2l-12.2-0.6l-6.1-0.3c-2-0.1-4.1-0.2-6.1-0.2l-12.2-0.2l-6.1-0.1l-3.1-0.1l-3.1,0l-12.2,0.2
					c-4.1,0-8.1,0.1-12.2,0.3c-32.6,1-65.1,4.1-97.8,7c-32.7,2.9-65.5,5.3-98.5,4.5c-32.9-0.7-65.8-4.9-97.9-12.1l-12-2.8l-6-1.4
					l-5.9-1.7l-11.9-3.4c-3.9-1.1-7.9-2.2-11.8-3.5l-23.4-7.7l-23.1-8.7c-1.9-0.7-3.8-1.4-5.8-2.2l-5.7-2.4l-11.4-4.8l-11.4-4.8
					c-3.8-1.6-7.5-3.4-11.2-5.1l-22.4-10.3l-22-11l-11-5.5c-3.6-1.9-7.2-3.8-10.9-5.8l-21.7-11.6c-1.8-1-3.6-1.9-5.4-2.9l-5.3-3
					l-10.7-6.1l-21.4-12.2l-3.1-1.8l2.8-2.3c3.9-3.1,7.8-6.1,11.8-9c4-2.9,7.9-5.8,12-8.7c8-5.7,16.1-11.3,24.4-16.7
					c16.4-10.9,33.2-21.3,50.2-31.2c34-19.9,69.1-37.9,105.2-53.9c36-16,73.1-29.9,110.9-41.4c18.9-5.7,38-10.8,57.3-15.2l14.5-3.2
					l14.6-2.9c4.8-1,9.7-1.8,14.6-2.6c4.9-0.8,9.7-1.7,14.6-2.4c39.1-6,78.7-8.9,118.4-8.5l14.9,0.3l3.7,0.1l3.7,0.2l7.4,0.4
					c9.9,0.4,19.8,1.4,29.7,2.2c4.9,0.5,9.9,1.1,14.8,1.7l7.4,0.9l7.4,1.1l14.7,2.2l14.6,2.7c2.4,0.5,4.9,0.9,7.3,1.4l7.3,1.6
					l14.5,3.2l14.4,3.7l7.2,1.9l7.1,2.1l14.3,4.2l14.1,4.7l7.1,2.3c2.4,0.8,4.7,1.7,7,2.6l14,5.2c2.3,0.8,4.6,1.8,6.9,2.8l6.9,2.8
					l6.9,2.8l3.4,1.4l3.4,1.5l13.5,6.2c2.2,1.1,4.5,2,6.7,3.1l6.7,3.3l13.3,6.7c4.4,2.3,8.7,4.7,13.1,7.1l6.5,3.6l3.3,1.8l3.2,1.9
					l12.8,7.6l6.4,3.8l6.3,4l12.5,8l3.1,2l3.1,2.1l6.1,4.2l12.2,8.5c4,2.9,8,5.9,11.9,8.9c4,3,8,5.9,11.9,8.9l11.6,9.3l5.8,4.6
					l2.9,2.3l0.7,0.6l0.8,0.6l1.4,1.2l11.2,9.5c3.7,3.2,7.5,6.3,11.2,9.6l11.1,9.9l5.6,4.9l5.4,5c7.2,6.7,14.5,13.4,21.6,20.3
					l10.6,10.3l10.4,10.6c13.9,14,27.2,28.7,40.3,43.5l9.6,11.3l4.8,5.7l4.7,5.8l9.3,11.6l9,11.8l4.5,5.9l4.3,6
					c2.9,4,5.8,8,8.7,12.1l8.4,12.3l2.1,3.1l2,3.1l4,6.2l4,6.3c1.4,2.1,2.6,4.2,3.9,6.3c2.5,4.2,5.1,8.5,7.6,12.7l7.3,12.9
					c1.2,2.1,2.4,4.3,3.5,6.5l3.5,6.6c9.2,17.6,17.5,35.5,25,53.9c7.4,18.4,13.8,37.2,19.1,56.2c10.7,38.1,17.1,77.6,18.1,117.1
					c0.5,19.8-0.2,39.6-2.2,59.3c-0.6,4.9-1.1,9.8-1.8,14.7c-0.4,2.4-0.6,4.9-1.1,7.3l-1.2,7.3c-1.7,9.7-3.6,19.4-6,29
					c-4.6,19.2-10.6,38.1-17.9,56.4c-3.6,9.2-7.6,18.2-12,27c-2.2,4.4-4.5,8.8-6.9,13.1c-2.4,4.3-4.9,8.5-7.6,12.7l-1.1,1.7
					L1741.5,1164.2z M1742.8,1161.9c2.1-3.5,4.1-7.2,6-10.8c2.3-4.3,4.4-8.7,6.4-13.2c4.1-8.9,7.8-18,11.2-27.1
					c3.4-9.2,6.4-18.5,9.1-27.9c2.7-9.4,5.1-18.9,7.2-28.4c8.3-38.2,11.4-77.4,9.6-116.4c-1.8-38.9-8.7-77.6-19.8-114.9
					c-5.6-18.7-12.2-37-19.7-55c-7.6-17.9-16-35.5-25.2-52.7l-3.5-6.4c-1.2-2.1-2.3-4.3-3.6-6.4l-7.3-12.6
					c-2.5-4.2-5.1-8.3-7.7-12.4c-1.3-2.1-2.5-4.2-3.9-6.2l-4-6.1l-4-6.1l-2-3.1l-2.1-3l-8.3-12c-2.8-4-5.8-7.9-8.6-11.8l-4.3-5.9
					l-4.5-5.8l-9-11.5l-9.3-11.3l-4.6-5.7l-4.8-5.5l-9.6-11.1c-13-14.5-26.3-28.8-40.1-42.6l-10.3-10.4l-10.6-10.1
					c-7-6.8-14.3-13.3-21.4-20l-5.4-4.9l-5.5-4.8l-11-9.6c-3.6-3.2-7.4-6.4-11.2-9.5l-11.3-9.5c-29.9-24.8-61.7-47.7-95-67.7
					c-33.3-20.1-68.2-37.6-104.4-51.8l-13.6-5.1c-2.3-0.8-4.5-1.8-6.8-2.5l-6.9-2.3l-13.8-4.7l-14-4.2l-7-2.1l-7.1-1.9l-14.1-3.7
					l-14.2-3.2l-7.1-1.6c-2.4-0.5-4.8-0.9-7.2-1.4l-14.3-2.7l-14.4-2.3l-7.2-1.1l-7.2-0.9c-4.8-0.6-9.6-1.2-14.5-1.7
					c-9.7-0.8-19.4-1.9-29.1-2.3l-7.3-0.4l-3.6-0.2l-3.6-0.1l-14.6-0.4c-2.4-0.1-4.9-0.1-7.3-0.1l-7.3,0l-7.3,0
					c-2.4,0-4.9,0.1-7.3,0.2c-4.9,0.2-9.7,0.3-14.6,0.5l-14.6,0.8c-4.9,0.2-9.7,0.7-14.6,1.1c-4.9,0.4-9.7,0.8-14.6,1.4l-14.5,1.6
					l-14.5,2c-38.6,5.5-76.8,14-114.3,24.7c-37.5,11-74.4,24-110.4,39.3c-36,15.3-71.2,32.6-105.3,51.8c-17,9.6-33.9,19.7-50.3,30.3
					c-8.2,5.3-16.4,10.7-24.4,16.3c-4,2.8-8,5.6-12,8.5c-4,2.9-7.9,5.8-11.7,8.8l-0.3-4l21.2,12.3l10.6,6.2l5.3,3.1
					c1.8,1,3.6,2,5.4,3l21.5,11.7c3.6,1.9,7.2,3.9,10.8,5.8l10.9,5.5l21.9,11l22.2,10.3c3.7,1.7,7.4,3.5,11.1,5.1l11.3,4.8l11.3,4.8
					l5.6,2.4c1.9,0.7,3.8,1.4,5.7,2.2l23,8.6l23.3,7.6c3.9,1.3,7.8,2.3,11.7,3.4l11.8,3.3l5.9,1.6l6,1.4l11.9,2.7
					c15.9,3.5,32.1,6.1,48.2,8l3,0.4c1,0.1,2,0.2,3,0.3l6.1,0.5l12.2,1c4.1,0.2,8.1,0.3,12.2,0.5l6.1,0.2l3.1,0.1l3.1,0
					c32.6,0.2,65.2-2.6,97.7-6.2c32.5-3.6,65.2-7.3,98.1-8.9c32.9-1.7,66-1.3,98.9,1.5c2.1,0.2,4.1,0.3,6.2,0.5l6.1,0.7l12.3,1.4
					l6.2,0.7c1,0.1,2.1,0.2,3.1,0.3l3.1,0.4l12.2,1.8l12.2,1.8c2,0.3,4.1,0.7,6.1,1.1l6.1,1.1l12.2,2.3l6.1,1.1l3,0.6l3,0.7
					l24.2,5.4l6,1.4c2,0.5,4,1,6,1.5l11.9,3.1l11.9,3.1l5.9,1.6l6,1.8l11.9,3.5l11.8,3.9l5.9,2l5.8,2.2l11.6,4.3l11.5,4.7
					c1.9,0.8,3.8,1.5,5.7,2.4l5.7,2.5l5.7,2.5c1.9,0.8,3.8,1.7,5.6,2.6l11.2,5.5c1.9,0.9,3.7,1.9,5.5,2.9l5.5,2.9l5.5,2.9
					c1.8,1,3.6,2.1,5.4,3.1c14.4,8.1,28.3,17.2,41.8,26.8l5,3.6l2.5,1.8l2.5,1.9l9.8,7.6c6.4,5.3,12.8,10.5,19,16.1
					c12.4,11,24.3,22.6,35.4,34.8c11.2,12.2,21.8,24.9,31.7,38.1c19.9,26.4,37.2,54.7,52.1,84.2c14.9,29.4,27.2,60.1,37.4,91.4
					c10.2,31.3,18,63.3,23.8,95.7c2.8,16.2,5.2,32.5,6.9,48.8c0.9,8.2,1.6,16.3,2.1,24.5C1742.4,1147,1742.7,1154.4,1742.8,1161.9z"
					/>
			</g>
			
				<radialGradient id="SVGID_8_" cx="1558.8169" cy="6315.7178" r="680" gradientTransform="matrix(0.3441 -0.9389 0.9389 0.3441 -5229.7036 510.7552)" gradientUnits="userSpaceOnUse">
				<stop  offset="0.3304" style="stop-color:#ED9326;stop-opacity:0"/>
				<stop  offset="0.6164" style="stop-color:#DE7523;stop-opacity:0.4271"/>
				<stop  offset="1" style="stop-color:#CC5020"/>
			</radialGradient>
			<circle class="st7" cx="1029.7" cy="1029.7" r="680"/>
		</g>
	</g>
</g>
</svg>
