<?xml version="1.0" encoding="utf-8"?>
<!-- Generator: Adobe Illustrator 20.1.0, SVG Export Plug-In . SVG Version: 6.00 Build 0)  -->
<svg version="1.1" id="Layer_2" xmlns="http://www.w3.org/2000/svg" xmlns:xlink="http://www.w3.org/1999/xlink" x="0px" y="0px"
	 viewBox="0 0 1000 1000" style="enable-background:new 0 0 1000 1000;" xml:space="preserve">
<style type="text/css">
	.st0{opacity:0.7;fill:#FFFFFF;}
	.st1{opacity:0.5;fill:#FFFFFF;}
</style>
<polygon class="st0" points="221.6,225.1 214.6,224.7 210.4,230.1 208.6,223.4 202.1,221 208,217.3 208.2,210.4 213.6,214.8 
	220.2,212.9 217.7,219.3 "/>
<polygon class="st0" points="395.6,299.8 390.2,295.5 383.6,297.6 385.9,291.1 381.9,285.5 388.8,285.7 393,280.1 394.9,286.8 
	401.4,289 395.7,292.9 "/>
<polygon class="st0" points="434.5,388 429.2,387.6 426,391.8 424.7,386.7 419.8,384.9 424.2,382.1 424.4,376.8 428.4,380.2 
	433.5,378.7 431.5,383.6 "/>
<polygon class="st0" points="527.8,471 520.9,470.5 516.6,476 514.9,469.3 508.4,466.9 514.2,463.2 514.5,456.2 519.8,460.7 
	526.5,458.8 523.9,465.2 "/>
<polygon class="st0" points="486.4,593.1 483,589.1 477.8,589.6 480.5,585.2 478.4,580.3 483.5,581.6 487.4,578.1 487.8,583.3 
	492.4,586 487.5,588 "/>
<polygon class="st0" points="683.2,678.4 676.3,678 672,683.5 670.3,676.8 663.8,674.4 669.6,670.7 669.9,663.7 675.2,668.1 
	681.9,666.2 679.4,672.7 "/>
<polygon class="st0" points="819.8,544.6 811.5,544.1 806.4,550.7 804.3,542.6 796.5,539.8 803.5,535.3 803.9,527 810.3,532.3 
	818.2,530 815.2,537.8 "/>
<polygon class="st1" points="169,694.5 164.2,692.4 159.8,695.3 160.2,690 156.1,686.7 161.2,685.5 163.1,680.6 165.9,685.1 
	171.1,685.4 167.7,689.4 "/>
<polygon class="st1" points="43.1,511.9 39.4,508.2 34.2,509.2 36.6,504.5 34,499.9 39.2,500.7 42.8,496.9 43.7,502.1 48.5,504.3 
	43.8,506.7 "/>
<polygon class="st1" points="752,226.5 747.2,224.4 742.8,227.3 743.2,222 739.1,218.7 744.2,217.5 746.1,212.6 748.9,217.1 
	754.1,217.4 750.7,221.4 "/>
<polygon class="st1" points="758.1,898.6 753.9,895.4 748.9,897 750.7,892 747.6,887.8 752.9,887.9 756,883.7 757.5,888.7 
	762.5,890.4 758.1,893.3 "/>
<polygon class="st1" points="605.9,26.2 602.7,22 597.5,22.2 600.5,17.9 598.7,13 603.7,14.5 607.8,11.2 607.9,16.5 612.3,19.4 
	607.3,21.1 "/>
<polygon class="st1" points="974,648.5 969.2,646.4 964.8,649.3 965.2,644 961.1,640.7 966.2,639.5 968.1,634.6 970.9,639.1 
	976.1,639.4 972.7,643.4 "/>
<polygon class="st1" points="270,985.5 265.2,983.4 260.8,986.3 261.2,981 257.1,977.7 262.2,976.5 264.1,971.6 266.9,976.1 
	272.1,976.4 268.7,980.4 "/>
</svg>
