<?xml version="1.0" encoding="utf-8"?>
<!-- Generator: Adobe Illustrator 20.1.0, SVG Export Plug-In . SVG Version: 6.00 Build 0)  -->
<svg version="1.1" id="Layer_1" xmlns="http://www.w3.org/2000/svg" xmlns:xlink="http://www.w3.org/1999/xlink" x="0px" y="0px"
	 viewBox="0 0 818.1 818.1" style="enable-background:new 0 0 818.1 818.1;" xml:space="preserve">
<style type="text/css">
	.st0{fill:url(#SVGID_1_);}
	.st1{fill:url(#SVGID_2_);}
	.st2{fill:#D8C032;}
	.st3{clip-path:url(#SVGID_4_);}
	.st4{fill:url(#SVGID_5_);}
	.st5{fill:#DBB331;}
	.st6{opacity:0.5;clip-path:url(#SVGID_4_);}
	.st7{fill:url(#SVGID_6_);}
</style>
<radialGradient id="SVGID_1_" cx="410.4532" cy="409.2857" r="421.5993" gradientUnits="userSpaceOnUse">
	<stop  offset="1.183421e-02" style="stop-color:#172742"/>
	<stop  offset="0.2959" style="stop-color:#243061;stop-opacity:0.7125"/>
	<stop  offset="0.7643" style="stop-color:#383F8E;stop-opacity:0.2385"/>
	<stop  offset="1" style="stop-color:#4044A0;stop-opacity:0"/>
</radialGradient>
<circle class="st0" cx="410.5" cy="409.3" r="421.6"/>
<g>
	<radialGradient id="SVGID_2_" cx="502.9506" cy="347.6045" r="255.0002" gradientUnits="userSpaceOnUse">
		<stop  offset="0" style="stop-color:#CEA928"/>
		<stop  offset="1" style="stop-color:#CE9042"/>
	</radialGradient>
	<path class="st1" d="M410.4,664.3c-68.1,0-132.1-26.5-180.3-74.7c-48.2-48.2-74.7-112.2-74.7-180.3S182,277.1,230.1,229
		c48.2-48.2,112.2-74.7,180.3-74.7s132.1,26.5,180.3,74.7s74.7,112.2,74.7,180.3s-26.5,132.1-74.7,180.3
		C542.6,637.8,478.5,664.3,410.4,664.3z"/>
	<path class="st2" d="M410.4,161.3c137,0,248,111,248,248s-111,248-248,248s-248-111-248-248S273.5,161.3,410.4,161.3 M410.4,147.3
		c-35.4,0-69.7,6.9-102,20.6c-31.2,13.2-59.2,32.1-83.3,56.1c-24.1,24.1-42.9,52.1-56.1,83.3c-13.7,32.3-20.6,66.6-20.6,102
		s6.9,69.7,20.6,102c13.2,31.2,32.1,59.2,56.1,83.3s52.1,42.9,83.3,56.1c32.3,13.7,66.6,20.6,102,20.6s69.7-6.9,102-20.6
		c31.2-13.2,59.2-32.1,83.3-56.1c24.1-24.1,42.9-52.1,56.1-83.3c13.7-32.3,20.6-66.6,20.6-102s-6.9-69.7-20.6-102
		c-13.2-31.2-32.1-59.2-56.1-83.3c-24.1-24.1-52.1-42.9-83.3-56.1C480.1,154.2,445.8,147.3,410.4,147.3L410.4,147.3z"/>
</g>
<g>
	<defs>
		
			<ellipse id="SVGID_3_" transform="matrix(0.8168 -0.5769 0.5769 0.8168 -160.9294 311.7738)" cx="410.5" cy="409.3" rx="248" ry="248"/>
	</defs>
	<clipPath id="SVGID_4_">
		<use xlink:href="#SVGID_3_"  style="overflow:visible;"/>
	</clipPath>
	<g class="st3">
		
			<linearGradient id="SVGID_5_" gradientUnits="userSpaceOnUse" x1="-1299.7577" y1="-5137.7666" x2="-1421.9741" y2="-5602.0483" gradientTransform="matrix(0.5826 0.8127 -0.8127 0.5826 -3119.7917 4637.6548)">
			<stop  offset="0" style="stop-color:#CEA628"/>
			<stop  offset="1" style="stop-color:#E08028"/>
		</linearGradient>
		<path class="st4" d="M705.1,270.1c0,0-4.7,258.3-175.6,210.2c-193.5-54.4-317.1,103.5-295.2,161.5l-85.4-33.5
			c0,0,13.4-151.6,199.2-199c206.4-52.7,172.6-303.6,140-335.4L705.1,270.1z"/>
		<path class="st5" d="M705.3,270.1c0,14.9-1,29.7-2.7,44.4c-1.7,14.8-4.2,29.4-7.6,44c-3.4,14.5-7.7,28.8-13.2,42.8
			c-5.5,13.9-12.4,27.5-21.1,39.9c-8.7,12.4-19.3,23.8-32.2,32.4c-6.4,4.3-13.3,7.9-20.6,10.7c-7.2,2.8-14.8,4.7-22.5,5.9
			c-7.7,1.2-15.4,1.4-23.1,1l-2.9-0.1c-1-0.1-1.9-0.2-2.9-0.3c-1.9-0.2-3.8-0.4-5.7-0.6l-5.7-0.9c-1.9-0.3-3.7-0.7-5.6-1.1
			c-3.8-0.7-7.4-1.7-11.1-2.6c-3.5-0.9-7.1-1.9-10.7-2.7c-3.5-0.8-7-1.7-10.6-2.3l-5.3-1.1l-5.4-0.9c-3.6-0.7-7.2-1.1-10.8-1.6
			c-1.8-0.3-3.6-0.4-5.4-0.6c-1.8-0.2-3.6-0.4-5.4-0.6c-3.6-0.3-7.2-0.6-10.8-0.8c-3.6-0.2-7.2-0.3-10.9-0.4
			c-14.5-0.1-29,0.8-43.3,3c-3.6,0.5-7.1,1.2-10.7,1.9c-3.5,0.8-7.1,1.5-10.6,2.4c-7,1.7-14,3.7-20.9,6.1c-6.9,2.4-13.6,5-20.3,7.9
			c-6.6,3-13.1,6.2-19.5,9.8c-12.7,7.1-24.8,15.4-36,24.7c-11.2,9.3-21.5,19.8-30.5,31.3c-4.5,5.7-8.6,11.8-12.4,18
			c-3.7,6.3-7,12.8-9.6,19.6c-2.7,6.8-4.6,13.8-5.5,20.9c-0.8,7.1-0.5,14.4,1.9,21l1.4,3.9l-3.8-1.5c-14.2-5.6-28.5-11.1-42.7-16.7
			l-21.4-8.3l-21.4-8.2l-1.5-0.6l0.2-1.6c0.8-7.7,2.4-15,4.2-22.3c1.9-7.3,4.1-14.5,6.7-21.6c1.4-3.5,2.6-7.1,4.2-10.5
			c0.7-1.7,1.4-3.5,2.2-5.2l2.4-5.1c0.8-1.7,1.6-3.4,2.5-5.1l2.6-5l2.8-4.9c0.9-1.6,1.8-3.3,2.8-4.9c7.8-12.9,16.8-25.2,26.9-36.5
			c10.1-11.3,21.3-21.6,33.2-31l9.1-6.8l9.5-6.3l2.4-1.6l2.4-1.4l4.9-2.9l4.9-2.9l5-2.7c13.3-7.3,27.4-13.1,41.6-18.2l10.7-3.7
			c1.8-0.6,3.6-1.1,5.4-1.7l5.5-1.6l10.8-3.1l5.4-1.5c0.9-0.2,1.8-0.5,2.6-0.8l2.6-0.8c13.8-4.4,27.3-10.1,40-17.2l4.7-2.7l4.6-2.9
			c0.8-0.5,1.5-0.9,2.3-1.4l2.2-1.5c1.5-1,3-2,4.5-3c2.9-2.2,5.9-4.2,8.6-6.5c1.4-1.1,2.8-2.2,4.2-3.4l4.1-3.6
			c10.7-9.7,20.4-20.5,28.6-32.4c4.1-5.9,8-12,11.5-18.4c3.5-6.3,6.7-12.8,9.5-19.5c2.8-6.7,5.4-13.5,7.7-20.4
			c2.2-6.9,4.2-13.9,5.9-21c1.6-7.1,3-14.3,4.2-21.5c1.1-7.2,2-14.5,2.6-21.7c1.2-14.6,1.4-29.2,0.5-43.8
			c-0.9-14.6-2.7-29.1-5.9-43.3c-1.6-7.1-3.5-14.1-6-20.7c-1.2-3.3-2.6-6.6-4.2-9.6c-1.6-3-3.4-5.8-5.4-7.8l7.4-7.9l53.7,49.6
			l53.6,49.8l26.7,25l26.7,25l26.4,25.1l26.5,25.4V270.1z M704.4,270.3l-27.5-23.6l-27.7-23.9l-27.6-24l-27.6-24.1l-54.9-48.3
			l-54.8-48.5l7.4-7.9c3.3,3.3,5.5,6.8,7.5,10.4c2,3.5,3.5,7.2,5,10.8c2.9,7.3,5,14.7,6.8,22.1c3.6,14.9,5.7,30,6.8,45.2
			c1,15.2,1.1,30.4-0.1,45.6c-1.1,15.2-3.4,30.3-6.8,45.2c-1.8,7.4-3.8,14.8-6.1,22.1c-2.3,7.3-5.1,14.4-8.1,21.5
			c-6.1,14.1-13.6,27.6-22.5,40.1c-8.9,12.5-19.3,24-30.8,34.2l-4.4,3.8c-1.5,1.3-3,2.4-4.5,3.6c-3,2.4-6.2,4.6-9.3,6.9
			c-1.6,1.1-3.2,2.1-4.8,3.2l-2.4,1.6c-0.8,0.5-1.6,1-2.5,1.5l-4.9,3l-5,2.8c-3.3,1.9-6.8,3.5-10.2,5.2c-1.7,0.8-3.5,1.6-5.2,2.4
			c-1.8,0.8-3.5,1.6-5.3,2.3c-3.6,1.4-7.1,2.9-10.7,4.1l-5.4,1.9l-5.5,1.7l-2.8,0.9c-0.9,0.3-1.8,0.6-2.7,0.8l-5.4,1.5l-10.8,2.9
			l-5.3,1.5c-1.8,0.5-3.6,0.9-5.3,1.5l-10.5,3.4c-3.5,1.1-6.9,2.4-10.4,3.7l-5.1,2l-2.6,1c-0.9,0.3-1.7,0.7-2.5,1.1l-10.1,4.4
			c-1.7,0.7-3.3,1.6-5,2.4l-4.9,2.4c-13.1,6.6-25.7,14.1-37.5,22.8c-11.8,8.7-22.9,18.4-33,29c-10.1,10.7-19.2,22.3-27.1,34.7
			c-8,12.4-14.6,25.6-20,39.3c-2.7,6.9-5,13.9-7,21l-0.7,2.7l-0.7,2.7c-0.5,1.8-0.8,3.6-1.2,5.4c-0.7,3.6-1.4,7.3-1.8,10.8l-1.3-2.1
			l21.3,8.5l21.3,8.4c14.2,5.6,28.4,11.3,42.7,16.8l-2.4,2.3c-1.4-3.7-2.1-7.5-2.5-11.3c-0.3-3.8-0.2-7.7,0.2-11.4
			c0.9-7.6,2.8-14.9,5.4-22c2.6-7.1,5.9-13.9,9.6-20.4c3.7-6.5,7.9-12.8,12.3-18.8c8.9-12.1,19.2-23.1,30.4-33
			c11.2-10,23.3-18.9,36.2-26.7c6.4-3.9,13.1-7.5,19.8-10.7c6.8-3.3,13.7-6.2,20.8-8.8c7-2.7,14.2-4.9,21.5-6.9
			c3.6-1,7.3-1.9,11-2.7c3.7-0.8,7.4-1.6,11.1-2.2c3.7-0.7,7.5-1.2,11.2-1.7c1.9-0.2,3.8-0.4,5.6-0.6l2.8-0.3l2.8-0.2
			c7.5-0.7,15.1-0.8,22.6-0.9c15.1,0.1,30.2,1.5,45,4.1l5.6,1l5.5,1.1c3.7,0.7,7.4,1.7,11.1,2.5c3.7,0.9,7.1,1.9,10.8,2.9
			c3.5,0.9,6.9,1.9,10.4,2.6c1.8,0.3,3.5,0.8,5.3,1.1l5.3,0.9c1.8,0.3,3.5,0.4,5.3,0.6c0.9,0.1,1.8,0.2,2.7,0.3l2.7,0.1
			c7.1,0.4,14.2,0.3,21.2-0.6c14-1.8,27.5-6.7,39.3-14.4c11.8-7.7,22.1-18,30.6-29.6c4.3-5.8,8.2-11.9,11.7-18.2
			c3.5-6.3,6.7-12.9,9.6-19.6c5.8-13.4,10.5-27.3,14.4-41.4c3.9-14.2,7-28.6,9.4-43.1c1.2-7.3,2.3-14.6,3.1-21.9
			C703.3,284.9,704,277.6,704.4,270.3z"/>
	</g>
	<g class="st6">
		
			<radialGradient id="SVGID_6_" cx="-11904.7959" cy="1474.0265" r="248" gradientTransform="matrix(-0.5769 -0.8168 0.8168 -0.5769 -7604.8052 -8519.0361)" gradientUnits="userSpaceOnUse">
			<stop  offset="0" style="stop-color:#CE9042;stop-opacity:0"/>
			<stop  offset="1" style="stop-color:#B8C925"/>
		</radialGradient>
		<circle class="st7" cx="410.4" cy="409.3" r="248"/>
	</g>
</g>
</svg>
