<?xml version="1.0" encoding="utf-8"?>
<!-- Generator: Adobe Illustrator 20.1.0, SVG Export Plug-In . SVG Version: 6.00 Build 0)  -->
<svg version="1.1" id="Layer_1" xmlns="http://www.w3.org/2000/svg" xmlns:xlink="http://www.w3.org/1999/xlink" x="0px" y="0px"
	 viewBox="0 0 818.1 818.1" style="enable-background:new 0 0 818.1 818.1;" xml:space="preserve">
<style type="text/css">
	.st0{fill:url(#SVGID_1_);}
	.st1{fill:url(#SVGID_2_);}
	.st2{fill:#D8C032;}
	.st3{clip-path:url(#SVGID_4_);}
	.st4{fill:url(#SVGID_5_);}
	.st5{fill:#DBB331;}
	.st6{opacity:0.5;clip-path:url(#SVGID_4_);}
	.st7{fill:url(#SVGID_6_);}
</style>
<radialGradient id="SVGID_1_" cx="410.0247" cy="410" r="409.0356" gradientUnits="userSpaceOnUse">
	<stop  offset="1.183421e-02" style="stop-color:#172742"/>
	<stop  offset="0.2959" style="stop-color:#243061;stop-opacity:0.7125"/>
	<stop  offset="0.7643" style="stop-color:#383F8E;stop-opacity:0.2385"/>
	<stop  offset="1" style="stop-color:#4044A0;stop-opacity:0"/>
</radialGradient>
<circle class="st0" cx="410" cy="410" r="409"/>
<g>
	<radialGradient id="SVGID_2_" cx="422.3364" cy="490.1859" r="255.0001" gradientUnits="userSpaceOnUse">
		<stop  offset="0" style="stop-color:#CEA928"/>
		<stop  offset="1" style="stop-color:#CE9042"/>
	</radialGradient>
	<path class="st1" d="M410,665c-68.1,0-132.1-26.5-180.3-74.7C181.5,542.1,155,478.1,155,410c0-68.1,26.5-132.1,74.7-180.3
		C277.9,181.5,341.9,155,410,155s132.1,26.5,180.3,74.7C638.5,277.9,665,341.9,665,410c0,68.1-26.5,132.1-74.7,180.3
		C542.1,638.5,478.1,665,410,665z"/>
	<path class="st2" d="M410,162c137,0,248,111,248,248S547,658,410,658S162,547,162,410S273,162,410,162 M410,148
		c-35.4,0-69.7,6.9-102,20.6c-31.2,13.2-59.2,32.1-83.3,56.1s-42.9,52.1-56.1,83.3c-13.7,32.3-20.6,66.6-20.6,102s6.9,69.7,20.6,102
		c13.2,31.2,32.1,59.2,56.1,83.3c24.1,24.1,52.1,42.9,83.3,56.1c32.3,13.7,66.6,20.6,102,20.6s69.7-6.9,102-20.6
		c31.2-13.2,59.2-32.1,83.3-56.1c24.1-24.1,42.9-52.1,56.1-83.3c13.7-32.3,20.6-66.6,20.6-102s-6.9-69.7-20.6-102
		c-13.2-31.2-32.1-59.2-56.1-83.3c-24.1-24.1-52.1-42.9-83.3-56.1C479.7,154.9,445.4,148,410,148L410,148z"/>
</g>
<g>
	<defs>
		<circle id="SVGID_3_" cx="410" cy="410" r="248"/>
	</defs>
	<clipPath id="SVGID_4_">
		<use xlink:href="#SVGID_3_"  style="overflow:visible;"/>
	</clipPath>
	<g class="st3">
		<linearGradient id="SVGID_5_" gradientUnits="userSpaceOnUse" x1="466.2339" y1="606.108" x2="338.7669" y2="121.8805">
			<stop  offset="0" style="stop-color:#CE8F28"/>
			<stop  offset="1" style="stop-color:#CEA628"/>
		</linearGradient>
		<path class="st4" d="M410,96c0,0,136,80,92,252s-12,340,48,356l-60-16c0,0-248-136-196-312s37.7-288-7.2-280H410z"/>
		<path class="st5" d="M410.3,95.5c6.1,3.5,11.8,7.5,17.4,11.7c5.6,4.2,10.9,8.8,16.1,13.5c10.3,9.5,19.8,19.9,28.2,31.2
			c8.4,11.3,15.9,23.3,22,36.1c6.1,12.7,11,26.1,14.6,39.8c3.6,13.7,5.8,27.8,6.5,42l0.2,2.7c0.1,0.9,0.1,1.8,0.1,2.7l0.1,5.3
			l0.1,5.3c0,0.9,0,1.8,0,2.7l-0.1,2.7l-0.5,10.6c-0.3,3.5-0.7,7-1.1,10.6l-0.6,5.3l-0.9,5.2l-1.7,10.5l-2.3,10.4l-1.2,5.2
			c-0.4,1.7-0.8,3.4-1.2,5c-3.3,13.4-6.1,26.9-8.6,40.4c-1.3,6.8-2.4,13.6-3.5,20.4c-1.1,6.8-2,13.6-2.9,20.5
			c-0.9,6.8-1.7,13.7-2.3,20.6c-0.7,6.9-1.3,13.7-1.8,20.6c-0.9,13.8-1.5,27.6-1.5,41.4c0,6.9,0.1,13.8,0.3,20.7
			c0.2,6.9,0.6,13.8,1.1,20.7c1.1,13.8,2.7,27.5,5.2,41.1c2.5,13.6,5.7,27,10.1,40.1c2.2,6.5,4.7,13,7.6,19.2
			c2.9,6.2,6.2,12.3,10,17.9c3.8,5.7,8.2,10.9,13.3,15.3c5.1,4.4,11,7.9,17.3,9.6l-1,3.7l-30.1-7.8c-10-2.6-20.1-5.1-30.1-7.6
			l-0.3-0.1l-0.3-0.2c-12.9-7.1-25.3-14.8-37.6-22.9c-12.2-8.1-24.1-16.7-35.8-25.6c-5.8-4.5-11.5-9.1-17.2-13.8
			c-5.6-4.7-11.2-9.5-16.6-14.5c-10.9-9.9-21.3-20.3-31.1-31.4c-2.5-2.7-4.9-5.6-7.3-8.4c-2.3-2.9-4.7-5.7-7-8.6
			c-4.6-5.8-9-11.8-13.2-17.9c-4.2-6.1-8.2-12.4-12-18.8c-3.7-6.4-7.2-13-10.5-19.8c-3.1-6.8-6.1-13.7-8.6-20.7
			c-0.7-1.7-1.2-3.6-1.8-5.3c-0.6-1.8-1.2-3.6-1.7-5.4l-1.6-5.4l-1.4-5.5c-0.2-0.9-0.5-1.8-0.7-2.7l-0.6-2.8
			c-0.4-1.8-0.8-3.7-1.1-5.5l-0.9-5.6c-0.3-1.9-0.5-3.7-0.7-5.6c-0.5-3.7-0.7-7.5-1-11.3c-0.1-1.9-0.1-3.8-0.2-5.7l-0.1-2.8l0.1-2.8
			c0-1.9,0.1-3.8,0.1-5.7l0.4-5.7c0.1-1.9,0.3-3.8,0.6-5.6c0.2-1.9,0.4-3.8,0.7-5.6c0.7-3.7,1.2-7.5,2-11.1c0.4-1.8,0.8-3.7,1.2-5.5
			l1.5-5.5c0.5-1.9,1-3.6,1.5-5.3l1.5-5.2l2.9-10.4c1.9-7,3.8-14,5.6-21c3.6-14,6.9-28.1,9.8-42.3c3-14.2,5.5-28.4,7.7-42.7
			c2.1-14.3,3.8-28.6,4.8-43c1-14.4,1.3-28.8,0.6-43c-0.4-7.1-1.1-14.2-2.2-21.2c-1.2-7-2.7-13.9-5.1-20.4
			c-2.3-6.5-5.5-12.6-10-17.1c-2.3-2.2-4.8-3.9-7.7-4.8c-2.8-1-5.9-1.1-9.1-0.6l-0.6-7.1l30.8,0.6l30.8,0.7l30.8,0.8
			c10.3,0.3,20.5,0.6,30.8,0.9l0.2,0L410.3,95.5z M409.8,96.6c-10.2,0.3-20.4,0.6-30.6,0.9l-30.8,0.8L317.6,99l-30.8,0.6l-0.6-7.1
			c4-0.7,8.4-0.8,12.6,0.5c4.2,1.2,7.8,3.5,10.9,6.3c3,2.8,5.5,6,7.5,9.4c2.1,3.4,3.7,6.9,5.2,10.4c1.4,3.6,2.6,7.2,3.6,10.8
			c1,3.6,1.8,7.3,2.5,11c1.4,7.4,2.3,14.8,2.9,22.2c1.2,14.8,1.2,29.6,0.5,44.4c-0.7,14.7-2.2,29.4-4,44
			c-1.9,14.6-4.4,29.1-7.2,43.5c-2.8,14.4-6.1,28.7-9.6,43c-1.8,7.1-3.6,14.2-5.6,21.3l-3,10.6L301,375c-0.5,1.7-1,3.5-1.5,5.2
			l-1.4,5.1c-0.4,1.7-0.8,3.4-1.2,5.1c-0.8,3.4-1.3,6.9-1.9,10.3c-0.3,1.7-0.4,3.5-0.7,5.2c-0.2,1.7-0.4,3.5-0.5,5.2l-0.4,5.2
			c-0.1,1.8-0.1,3.5-0.2,5.3l-0.1,2.6l0,2.6c0,1.8,0,3.5,0.1,5.3c0.2,3.5,0.3,7,0.8,10.5c0.2,1.7,0.3,3.5,0.6,5.2l0.8,5.2
			c0.3,1.7,0.6,3.5,1,5.2l0.5,2.6c0.2,0.9,0.4,1.7,0.6,2.6l1.2,5.2l1.4,5.1c0.4,1.7,1,3.4,1.5,5.1c0.6,1.7,1,3.4,1.6,5
			c2.3,6.7,5,13.3,7.9,19.8c3,6.4,6.2,12.8,9.7,19c3.6,6.2,7.2,12.3,11.3,18.2c4,5.9,8.2,11.8,12.5,17.5c2.1,2.9,4.4,5.7,6.7,8.5
			c2.3,2.8,4.6,5.6,6.9,8.3c4.7,5.5,9.6,10.8,14.5,16c4.9,5.3,10,10.4,15.2,15.4c10.4,10,21.2,19.7,32.4,28.9
			c11.2,9.2,22.7,18.1,34.5,26.5c5.9,4.2,11.9,8.3,17.9,12.3c6,4,12.2,7.9,18.4,11.5l-0.6-0.2c10,2.8,19.9,5.6,29.9,8.4l29.9,8.2
			l-1,3.7c-7.1-2-13.4-5.8-18.8-10.5c-5.4-4.7-9.9-10.3-13.9-16.1c-3.9-5.9-7.4-12-10.3-18.4c-3-6.4-5.6-12.9-8-19.5
			c-4.7-13.2-8.3-26.8-11.1-40.5c-2.9-13.7-5-27.5-6.6-41.4c-0.8-6.9-1.4-13.9-2-20.9c-0.5-7-0.9-14-1.1-21c-0.5-14-0.5-28,0-42
			c0.5-14,1.5-28,3-41.9c0.8-7,1.6-13.9,2.6-20.8c1-6.9,2.1-13.8,3.4-20.7c1.2-6.9,2.6-13.8,4.1-20.6c0.8-3.4,1.5-6.8,2.3-10.3
			c0.8-3.4,1.6-6.9,2.5-10.2c0.4-1.7,0.9-3.3,1.3-5.1l1.2-5l2.3-10l1.8-10.1l0.9-5l0.6-5.1c1.9-13.5,2.3-27.2,1.9-40.7l-0.3-5.1
			l-0.1-2.5l-0.1-1.3L505,260l-1.1-10.1c-1-6.7-2.1-13.4-3.7-20.1c-3-13.3-7.4-26.3-12.9-38.7c-5.5-12.5-12.2-24.5-20-35.8
			c-1-1.4-1.9-2.8-2.9-4.2l-3.1-4.1l-1.5-2.1c-0.5-0.7-1.1-1.3-1.6-2l-3.2-4c-1.1-1.3-2.2-2.6-3.3-3.9c-1.1-1.3-2.2-2.6-3.4-3.9
			c-2.3-2.5-4.6-5.1-7.1-7.5c-4.8-4.9-9.8-9.7-15.1-14.2C420.9,104.7,415.5,100.4,409.8,96.6z"/>
	</g>
	<g class="st6">
		<radialGradient id="SVGID_6_" cx="421.9976" cy="487.9844" r="248" gradientUnits="userSpaceOnUse">
			<stop  offset="0" style="stop-color:#CE9042;stop-opacity:0"/>
			<stop  offset="1" style="stop-color:#B8C925"/>
		</radialGradient>
		<circle class="st7" cx="410" cy="410" r="248"/>
	</g>
</g>
</svg>
