<?xml version="1.0" encoding="utf-8"?>
<!-- Generator: Adobe Illustrator 20.1.0, SVG Export Plug-In . SVG Version: 6.00 Build 0)  -->
<svg version="1.1" id="Layer_1" xmlns="http://www.w3.org/2000/svg" xmlns:xlink="http://www.w3.org/1999/xlink" x="0px" y="0px"
	 viewBox="0 0 1766.6 1766.6" style="enable-background:new 0 0 1766.6 1766.6;" xml:space="preserve">
<style type="text/css">
	.st0{fill:url(#SVGID_1_);}
	.st1{fill:url(#SVGID_2_);}
	.st2{fill:#D8C032;}
	.st3{clip-path:url(#SVGID_4_);}
	.st4{fill:url(#SVGID_5_);}
	.st5{fill:#DBB331;}
	.st6{fill:url(#SVGID_6_);}
	.st7{fill:url(#SVGID_7_);}
	.st8{opacity:0.85;}
	.st9{fill:url(#SVGID_8_);}
</style>
<radialGradient id="SVGID_1_" cx="883.3135" cy="883.3135" r="883.3135" gradientUnits="userSpaceOnUse">
	<stop  offset="1.183421e-02" style="stop-color:#172742"/>
	<stop  offset="0.2959" style="stop-color:#243061;stop-opacity:0.7125"/>
	<stop  offset="0.7643" style="stop-color:#383F8E;stop-opacity:0.2385"/>
	<stop  offset="1" style="stop-color:#4044A0;stop-opacity:0"/>
</radialGradient>
<circle class="st0" cx="883.3" cy="883.3" r="883.3"/>
<g>
	<radialGradient id="SVGID_2_" cx="1035.1023" cy="701.1668" r="858.9651" gradientUnits="userSpaceOnUse">
		<stop  offset="0" style="stop-color:#CEA928"/>
		<stop  offset="1" style="stop-color:#CE9042"/>
	</radialGradient>
	<path class="st1" d="M883.3,1482.3c-80.9,0-159.3-15.8-233.2-47.1c-71.3-30.2-135.4-73.4-190.4-128.4
		c-55-55-98.2-119.1-128.4-190.4c-31.2-73.9-47.1-152.3-47.1-233.2s15.8-159.3,47.1-233.2c30.2-71.3,73.4-135.4,128.4-190.4
		s119.1-98.2,190.4-128.4c73.9-31.2,152.3-47.1,233.2-47.1s159.3,15.8,233.2,47.1c71.3,30.2,135.4,73.4,190.4,128.4
		c55,55,98.2,119.1,128.4,190.4c31.2,73.9,47.1,152.3,47.1,233.2s-15.8,159.3-47.1,233.2c-30.2,71.3-73.4,135.4-128.4,190.4
		c-55,55-119.1,98.2-190.4,128.4C1042.6,1466.5,964.2,1482.3,883.3,1482.3z"/>
	<path class="st2" d="M883.3,291.3c327,0,592,265,592,592s-265,592-592,592s-592-265-592-592S556.4,291.3,883.3,291.3 M883.3,277.3
		c-81.8,0-161.2,16-235.9,47.6c-35.9,15.2-70.5,34-102.9,55.9c-32.1,21.7-62.3,46.6-89.7,74c-27.4,27.4-52.3,57.6-74,89.7
		c-21.9,32.4-40.7,67-55.9,102.9c-31.6,74.7-47.6,154.1-47.6,235.9s16,161.2,47.6,235.9c15.2,35.9,34,70.5,55.9,102.9
		c21.7,32.1,46.6,62.3,74,89.7c27.4,27.4,57.6,52.3,89.7,74c32.4,21.9,67,40.7,102.9,55.9c74.7,31.6,154.1,47.6,235.9,47.6
		s161.2-16,235.9-47.6c35.9-15.2,70.5-34,102.9-55.9c32.1-21.7,62.3-46.6,89.7-74c27.4-27.4,52.3-57.6,74-89.7
		c21.9-32.4,40.7-67,55.9-102.9c31.6-74.7,47.6-154.1,47.6-235.9s-16-161.2-47.6-235.9c-15.2-35.9-34-70.5-55.9-102.9
		c-21.7-32.1-46.6-62.3-74-89.7c-27.4-27.4-57.6-52.3-89.7-74c-32.4-21.9-67-40.7-102.9-55.9C1044.5,293.3,965.1,277.3,883.3,277.3
		L883.3,277.3z"/>
</g>
<g>
	<defs>
		<circle id="SVGID_3_" cx="883.3" cy="883.3" r="592"/>
	</defs>
	<clipPath id="SVGID_4_">
		<use xlink:href="#SVGID_3_"  style="overflow:visible;"/>
	</clipPath>
	<g class="st3">
		<g>
			<linearGradient id="SVGID_5_" gradientUnits="userSpaceOnUse" x1="1339.8193" y1="1158.9291" x2="1519.016" y2="747.5182">
				<stop  offset="0" style="stop-color:#CEA628"/>
				<stop  offset="1" style="stop-color:#E08028"/>
			</linearGradient>
			<path class="st4" d="M1475.3,583.2c0,0-199.2,117-169.2,429s-96,390-96,390l265.2-150l82.9-369L1475.3,583.2z"/>
			<path class="st5" d="M1474.9,584.2c-7.5,5.1-14.6,10.7-21.5,16.6c-7.1,6.1-13.9,12.5-20.5,19.1c-13.2,13.2-25.2,27.5-36.4,42.4
				c-11.1,15-21.2,30.7-30.2,46.9c-9,16.3-16.8,33.2-23.7,50.4l-4.9,13l-1.2,3.3l-1.1,3.3l-2.2,6.6c-3.1,8.8-5.4,17.8-7.9,26.7
				c-0.7,2.2-1.1,4.5-1.7,6.8l-1.6,6.8l-1.6,6.8c-0.3,1.1-0.6,2.3-0.8,3.4l-0.6,3.4c-1.7,9.1-3.6,18.2-4.7,27.5l-1.9,13.8l-1.3,13.9
				c-1.1,9.2-1.4,18.5-1.9,27.8l-0.4,7l-0.1,7l-0.2,13.9l-0.1,3.5c0,1.2,0,2.3,0,3.5l0.2,7l0.4,14c0,4.7,0.4,9.3,0.7,13.9l0.9,13.9
				c0.6,9.4,1.3,18.7,1.9,28.1c0.2,2.3,0.4,4.7,0.5,7l0.3,7.1l0.6,14.2c0.2,4.7,0.2,9.4,0.3,14.1l0.2,14.1c0.1,2.4,0,4.7,0,7.1
				l-0.1,7.1l-0.3,14.1l-0.7,14.1c-0.2,4.7-0.4,9.4-0.8,14.1l-1.1,14.1c-0.2,2.3-0.4,4.7-0.7,7l-0.8,7c-0.9,9.4-2.3,18.7-3.6,28
				c-0.7,4.7-1.6,9.3-2.4,13.9c-0.4,2.3-0.8,4.6-1.2,7l-1.5,6.9c-1.8,9.2-4.1,18.4-6.4,27.5l-3.8,13.6c-1.4,4.5-2.9,9-4.3,13.5
				l-0.5,1.7l-0.6,1.7l-1.2,3.3l-2.4,6.7c-0.8,2.2-1.7,4.4-2.6,6.6l-2.6,6.6c-1.9,4.3-3.8,8.6-5.8,12.9l-3.1,6.3
				c-1,2.1-2.1,4.2-3.2,6.3l-3.4,6.2c-1.1,2.1-2.4,4.1-3.6,6.1c-2.3,4.1-5,8-7.5,12c-5.3,7.8-11.1,15.4-17.4,22.5
				c-3.1,3.6-6.5,7-9.9,10.3l-2.6,2.4l-2.7,2.4c-0.9,0.8-1.9,1.5-2.8,2.3c-1,0.7-1.9,1.4-3,2.2l-2.7-4.6l65.8-38.4
				c21.9-12.8,43.8-25.7,65.8-38.4l33-19.1l33-19l66.1-37.9l-2.8,3.8l20.3-92.4l10.2-46.2l10.3-46.1l10.4-46.1l10.6-46.1l10.7-46.1
				l10.7-46l0.1,2.7l-10-37.6l-10-37.6c-6.7-25.1-13.2-50.2-19.7-75.3l-9.7-37.7l-9.7-37.7l-9.6-37.7L1474.9,584.2z M1475.7,582.3
				l11.5,38l11.1,37.3l11,37.3l11,37.3c7.2,24.9,14.5,49.8,21.7,74.7l10.8,37.4l10.7,37.4l0.4,1.3l-0.3,1.4l-10,46.2l-10.1,46.2
				l-10.2,46.2l-10.3,46.1l-10.4,46.1l-10.5,46.1l-21.2,92.1l-0.6,2.5l-2.2,1.2l-66.5,37.1l-33.3,18.5l-33.3,18.4
				c-22.2,12.3-44.5,24.4-66.8,36.6l-66.8,36.6l-2.7-4.6c0.8-0.5,1.8-1.2,2.7-1.9c0.9-0.7,1.8-1.4,2.7-2.1l2.7-2.2l2.6-2.3
				c3.4-3.1,6.7-6.3,9.8-9.8c6.3-6.8,12-14.1,17.4-21.7c10.5-15.4,19.5-31.8,26.7-49c7.3-17.2,13.2-34.9,17.9-53
				c2.2-9.1,4.4-18.2,6.1-27.4l1.3-6.9c0.4-2.3,0.7-4.6,1.1-6.9c0.7-4.6,1.5-9.2,2.1-13.9c1.1-9.3,2.4-18.5,3-27.9l0.6-7
				c0.2-2.3,0.4-4.7,0.5-7l0.7-14c0.1-2.3,0.3-4.7,0.3-7l0.1-7l0.2-14l-0.2-14l-0.1-7c0-2.3-0.1-4.7-0.2-7l-0.6-14
				c-0.2-4.7-0.4-9.3-0.7-14l-1-13.9l-0.5-7c-0.2-2.3-0.4-4.7-0.6-7c-0.9-9.3-1.8-18.7-2.6-28l-1.2-14.1c-0.4-4.7-0.9-9.4-1-14.1
				l-0.5-14.2l-0.3-7.1c-0.1-1.2-0.1-2.4,0-3.5l0-3.5l0.1-14.2l0.1-7.1l0.4-7.1l0.8-14.2l0.2-3.5c0.1-1.2,0.2-2.4,0.3-3.5l0.7-7.1
				l1.5-14.1l2.1-14.1c1.2-9.4,3.2-18.7,5-28l0.7-3.5c0.2-1.2,0.5-2.3,0.8-3.5l1.7-6.9l1.7-6.9c0.6-2.3,1.1-4.6,1.8-6.9
				c2.7-9.1,5.2-18.2,8.5-27.1l2.3-6.7l1.2-3.4l1.3-3.3l5.2-13.2c7.4-17.5,15.8-34.5,25.3-50.9c9.5-16.4,20.4-32,32.1-46.8
				c5.8-7.4,12-14.6,18.4-21.5c1.6-1.8,3.2-3.5,4.9-5.1l4.9-5.1c1.7-1.7,3.4-3.3,5.1-4.9c1.7-1.6,3.4-3.3,5.1-4.9
				c13.9-12.7,28.6-24.7,44.9-34.3L1475.7,582.3z"/>
		</g>
		<g>
			<linearGradient id="SVGID_6_" gradientUnits="userSpaceOnUse" x1="1199.4203" y1="664.7264" x2="477.4717" y2="1291.8002">
				<stop  offset="0" style="stop-color:#CEA628"/>
				<stop  offset="1" style="stop-color:#E08028"/>
			</linearGradient>
			<path class="st6" d="M1396.2,509c0,0-258.9,124.1-305.5,632.7c-39.6,431.6-438.6,350.6-438.6,350.6s-409.3-327-409.3-354
				s-64.7-138-64.7-138s441,189,663.7-148.5c260.1-394.3,484-434,484-434L1396.2,509z"/>
			<path class="st5" d="M1396.5,509.6c-12.5,6.8-24.2,15.1-35.4,23.8c-11.2,8.8-22.1,18-32.3,27.9l-3.9,3.7l-3.8,3.8l-7.5,7.6
				l-7.3,7.8c-2.4,2.6-4.9,5.2-7.2,7.9l-7,8c-1.2,1.3-2.3,2.7-3.5,4l-3.4,4.1c-4.5,5.5-9.1,11-13.3,16.7
				c-17.3,22.6-33.1,46.3-47.4,70.9c-14.2,24.7-27,50.1-38.8,76l-8.3,19.6c-1.4,3.3-2.8,6.5-4.1,9.8l-3.8,10
				c-2.5,6.6-5.1,13.3-7.6,19.9l-7,20.2l-3.5,10.1c-1.1,3.4-2.1,6.8-3.2,10.2l-6.3,20.4c-1.1,3.4-2,6.8-2.9,10.3l-2.8,10.3
				c-1.8,6.9-3.8,13.7-5.5,20.6l-4.9,20.8l-2.4,10.4l-1.2,5.2l-1.1,5.2l-4.2,20.9c-1.4,7-2.9,13.9-4,21l-3.6,21.1
				c-1.2,7-2.5,14-3.3,21.1l-2.9,21.2l-1.4,10.6l-0.7,5.3l-0.6,5.3l-4.5,42.6l-1.1,10.7l-0.6,5.3l-0.3,2.7l-0.4,2.7l-1.5,10.8
				l-0.7,5.4c-0.3,1.8-0.6,3.6-0.9,5.3c-1.2,7.1-2.4,14.2-3.9,21.3l-2.2,10.6l-2.5,10.5l-1.3,5.3c-0.4,1.8-0.9,3.5-1.4,5.2
				l-2.9,10.4c-0.5,1.7-1,3.5-1.6,5.2l-1.6,5.2c-1.1,3.4-2.1,6.9-3.4,10.3l-3.7,10.2c-0.6,1.7-1.3,3.4-2,5.1l-2,5
				c-2.6,6.8-5.7,13.3-8.6,19.9c-6.3,13.1-13.2,25.8-20.9,38.1c-15.6,24.4-34.1,47.1-55.8,66.3c-21.6,19.3-45.9,35.5-71.9,48
				c-26,12.6-53.6,21.6-81.7,27.7c-28.1,6-56.8,9.1-85.5,9.7c-14.4,0.3-28.7-0.1-43-1.1c-7.2-0.5-14.3-1.1-21.4-2
				c-7.1-0.9-14.2-1.8-21.4-3.2l-0.4-0.1l-0.4-0.3l-67.7-54.6l-33.8-27.4l-33.7-27.4l-33.7-27.5l-33.6-27.6
				c-22.4-18.4-44.7-36.9-66.9-55.5c-22.2-18.6-44.3-37.4-66.2-56.5c-10.9-9.5-21.8-19.2-32.5-29c-10.7-9.8-21.3-19.8-31.4-30.5
				c-2.5-2.7-5-5.5-7.3-8.5c-1.2-1.5-2.3-3.1-3.4-4.8c-0.3-0.5-0.5-0.9-0.8-1.4c-0.1-0.3-0.3-0.5-0.4-0.8l-0.4-0.9
				c-0.1-0.3-0.2-0.7-0.3-1l-0.1-0.6c0-0.2-0.1-0.5-0.1-0.7c0-0.2,0-0.5-0.1-0.7c0-0.2,0,0.3,0,0l0-0.2l-0.1-0.7
				c-0.1-2-0.4-3.2-0.7-4.8c-0.4-1.6-0.8-3.3-1.3-4.9c-1-3.3-2.2-6.6-3.4-10c-2.6-6.6-5.4-13.2-8.5-19.7c-3-6.5-6.2-13-9.4-19.4
				c-6.5-12.9-13.3-25.6-20.2-38.3c-7-12.6-14.1-25.3-21.3-37.7l-7.6-13l14,5.8c3.2,1.3,6.6,2.7,10,3.9c3.4,1.3,6.8,2.5,10.2,3.7
				c6.8,2.4,13.7,4.7,20.6,6.9c13.8,4.4,27.8,8.4,41.8,12c28.1,7.3,56.5,13.1,85.2,17.3c28.7,4.2,57.6,6.8,86.5,7.4
				c14.5,0.3,28.9,0.2,43.4-0.5c14.4-0.7,28.8-2,43.2-3.7c28.6-3.7,57-9.5,84.4-18.2c13.8-4.2,27.3-9.3,40.5-14.8
				c13.3-5.5,26.2-12,38.8-18.8l9.4-5.3c3.1-1.8,6.1-3.7,9.2-5.6c1.5-0.9,3.1-1.9,4.6-2.8l4.5-3c3-2,6-3.9,8.9-6
				c5.8-4.2,11.7-8.3,17.3-12.8l4.2-3.3c1.4-1.1,2.8-2.2,4.2-3.4l8.2-7l2.1-1.7l2-1.8l4-3.6l4-3.6l2-1.8c0.7-0.6,1.3-1.3,1.9-1.9
				c5.1-5.1,10.3-10,15.2-15.3c2.4-2.6,5-5.2,7.4-7.9l7.1-8.1l3.5-4.1l3.4-4.2l6.8-8.4c2.2-2.8,4.3-5.8,6.5-8.6l3.2-4.3
				c1.1-1.4,2.2-2.9,3.2-4.4l6.1-8.9l3.1-4.5l3.1-4.5l12.3-18.1l6.2-9.1l3.1-4.5l3.2-4.5l12.8-17.9l6.4-9l1.6-2.2l1.6-2.2l3.3-4.4
				l13.2-17.6c2.2-2.9,4.4-5.9,6.6-8.8l6.8-8.6l13.6-17.3c2.2-2.9,4.6-5.7,6.9-8.5l7-8.5l7-8.5c2.3-2.8,4.6-5.7,7.1-8.4l14.4-16.6
				c2.4-2.8,4.8-5.6,7.2-8.3l7.4-8.1l14.8-16.2l15.2-15.9c2.6-2.6,5-5.3,7.6-7.9l7.8-7.7l7.8-7.7l3.9-3.9c1.3-1.3,2.7-2.5,4-3.8
				l16-15.1c5.4-5,10.9-9.8,16.4-14.7c5.4-4.9,11.1-9.6,16.7-14.4c22.4-18.9,45.6-36.9,69.8-53.5c6.1-4.1,12.1-8.3,18.3-12.2
				l9.3-5.9c3.1-1.9,6.3-3.8,9.4-5.7c12.6-7.6,25.4-14.6,38.5-21.3c13.1-6.7,26.5-12.7,40.2-18l2.6-1l2.6-1l5.2-1.9
				c1.7-0.7,3.5-1.2,5.2-1.8c1.7-0.6,3.5-1.2,5.2-1.7l5.3-1.6l5.3-1.5c3.6-0.9,7.1-1.9,10.9-2.6l1.2-0.2l0.7,1l34.7,46.1l35.1,46.7
				L1396.5,509.6z M1395.3,508.9l-35.4-44.6l-35.8-45.2l1.9,0.8c-3.4,0.7-7,1.7-10.4,2.7l-5.2,1.6l-5.2,1.7
				c-1.7,0.6-3.4,1.2-5.1,1.8c-1.7,0.6-3.4,1.2-5.1,1.9l-5.1,2l-2.5,1l-2.5,1.1c-6.7,2.8-13.3,5.8-19.9,8.9l-9.8,4.7l-9.7,5
				c-12.8,6.8-25.5,14-37.8,21.7c-3.1,1.9-6.2,3.8-9.2,5.8l-9.1,6c-6.1,3.9-12,8.2-18,12.3c-23.7,16.8-46.5,34.9-68.4,54
				c-5.5,4.8-11,9.5-16.3,14.5c-5.3,4.9-10.8,9.8-16,14.8l-15.7,15.1c-1.3,1.3-2.6,2.5-3.9,3.8l-3.8,3.9l-7.7,7.8l-7.7,7.8
				c-2.6,2.6-5,5.3-7.5,7.9l-14.9,15.9l-14.5,16.3l-7.3,8.1c-2.4,2.7-4.7,5.5-7.1,8.3l-14.2,16.6c-2.4,2.7-4.6,5.6-6.9,8.4l-6.9,8.5
				l-6.9,8.5c-2.3,2.8-4.6,5.6-6.8,8.5l-13.3,17.3l-6.7,8.6c-2.2,2.9-4.3,5.8-6.5,8.8l-12.9,17.6l-3.2,4.4l-1.6,2.2l-1.6,2.2
				l-6.3,8.9l-12.5,17.8l-3.1,4.5l-3.1,4.5l-6.1,9.1l-12.2,18.2l-3.1,4.5l-3.1,4.5l-6.2,9.2c-1,1.5-2.1,3-3.2,4.5l-3.3,4.5
				c-2.2,3-4.4,6-6.6,8.9l-6.9,8.7l-3.5,4.3l-3.6,4.2l-7.3,8.4c-2.5,2.8-5,5.4-7.5,8.2c-5,5.5-10.3,10.6-15.6,15.8
				c-0.7,0.6-1.3,1.3-2,1.9l-2,1.9l-4.1,3.8l-4.1,3.8l-2.1,1.9l-2.1,1.8l-8.5,7.2c-1.4,1.2-2.9,2.4-4.3,3.5l-4.4,3.4
				c-5.8,4.7-11.9,8.9-17.9,13.3c-3,2.1-6.2,4.1-9.2,6.2l-4.6,3.1c-1.6,1-3.2,1.9-4.7,2.9c-3.2,1.9-6.3,3.9-9.5,5.8l-9.7,5.5
				c-13,7.1-26.3,13.7-40,19.3c-13.7,5.7-27.6,10.9-41.7,15.2c-28.3,8.7-57.4,14.6-86.7,18.2c-14.7,1.7-29.4,2.9-44.1,3.6
				c-14.7,0.6-29.5,0.7-44.2,0.3c-29.5-0.8-58.8-3.6-87.9-8c-29.1-4.4-57.9-10.5-86.3-18c-14.2-3.8-28.3-8-42.3-12.5
				c-7-2.3-13.9-4.7-20.9-7.2c-3.5-1.3-6.9-2.5-10.4-3.9c-3.5-1.3-6.8-2.7-10.3-4.2l6.4-7.2c7.3,12.6,14.2,25.3,21.1,38.2
				c6.9,12.8,13.5,25.7,19.9,38.8c6.4,13.1,12.5,26.3,17.7,40.2c1.3,3.5,2.5,7,3.5,10.6c0.6,1.8,1,3.7,1.4,5.6c0.4,2,0.8,4.3,0.8,6
				l0,0.7l0,0.5c0,0,0,0,0-0.1c0,0,0-0.1,0,0l0,0.1c0,0.1,0,0.1,0.1,0.3l0.1,0.4c0.1,0.1,0.1,0.3,0.2,0.4c0.1,0.3,0.3,0.6,0.5,0.9
				c0.8,1.3,1.8,2.7,2.8,4.1c2.1,2.7,4.4,5.4,6.8,8c9.6,10.5,20,20.6,30.5,30.5c10.5,9.9,21.2,19.7,31.9,29.3
				c21.5,19.3,43.3,38.4,65.3,57.3c11,9.5,22,18.8,33,28.2l33.2,28l33.4,27.8l33.5,27.7c11.2,9.2,22.4,18.4,33.6,27.6l33.7,27.4
				l33.8,27.3l33.9,27.2l-0.8-0.4c6.9,1.3,14,2.2,21,3c7.1,0.8,14.2,1.4,21.3,1.8c14.2,0.9,28.4,1.1,42.7,0.7
				c14.2-0.4,28.4-1.5,42.5-3.2c14.1-1.8,28.1-4.2,41.9-7.4c13.8-3.2,27.5-7.1,40.8-11.8c13.4-4.7,26.4-10.3,39-16.6
				c25.3-12.7,48.7-28.9,69.4-48c20.8-19.1,38.4-41.3,53.3-65.3c7.3-12.1,13.8-24.6,19.8-37.3c2.8-6.5,5.8-12.9,8.2-19.5l1.9-4.9
				c0.6-1.6,1.3-3.3,1.9-5l3.5-10c1.2-3.3,2.2-6.7,3.2-10.1l1.6-5.1c0.5-1.7,1.1-3.4,1.5-5.1l2.8-10.2c0.4-1.7,1-3.4,1.4-5.1
				l1.2-5.2l2.4-10.3l2.1-10.4c1.5-6.9,2.6-13.9,3.8-20.9c0.3-1.7,0.6-3.5,0.9-5.2l0.7-5.2l1.4-10.5l0.4-2.6l0.3-2.7l0.6-5.3
				l1.1-10.7l4.6-42.7l0.6-5.3l0.7-5.3l1.5-10.7l3-21.3c0.9-7.1,2.2-14.2,3.4-21.2l3.7-21.2c1.1-7.1,2.7-14.1,4.1-21.1l4.3-21.1
				l1.1-5.3l1.3-5.2l2.5-10.5l5.1-20.9c1.8-6.9,3.8-13.8,5.7-20.7l2.9-10.4c1-3.5,1.9-6.9,3-10.3l6.5-20.5c1.1-3.4,2.1-6.8,3.3-10.3
				l3.6-10.1l7.2-20.3c2.6-6.7,5.3-13.4,7.9-20l4-10c1.3-3.3,2.9-6.6,4.3-9.9l8.7-19.7c12.2-26,25.4-51.5,40.2-76.1
				c14.9-24.5,31.2-48.3,49.1-70.7c4.4-5.7,9.1-11.1,13.7-16.6l3.5-4.1c1.2-1.3,2.4-2.7,3.6-4l7.2-8c2.4-2.7,4.9-5.2,7.4-7.8
				l7.5-7.7l7.8-7.4l3.9-3.7l4-3.6c2.7-2.4,5.3-4.8,8-7.2l8.2-6.9c1.4-1.2,2.8-2.3,4.2-3.4l4.2-3.3c2.8-2.3,5.7-4.4,8.6-6.5
				c1.4-1.1,2.9-2.1,4.3-3.2l4.4-3.1c2.9-2.1,6-4,9-6C1383.1,515.5,1389.1,511.9,1395.3,508.9z"/>
		</g>
		<g>
			<linearGradient id="SVGID_7_" gradientUnits="userSpaceOnUse" x1="354.0972" y1="598.4583" x2="1219.5953" y2="289.9826">
				<stop  offset="0" style="stop-color:#CEA628"/>
				<stop  offset="1" style="stop-color:#E08028"/>
			</linearGradient>
			<path class="st7" d="M1210.1,352.2c0,0-264.1,33-366.4,195c-113.6,180-325.1,291-552.4,36l216.8-264l417-84L1210.1,352.2z"/>
			<path class="st5" d="M1210.2,352.8c-11.3,1.8-22.5,4.1-33.6,6.6c-11.1,2.5-22.2,5.2-33.2,8.2c-22,5.9-43.8,12.6-65.3,20.3
				c-10.7,3.8-21.3,7.9-31.9,12.3c-10.5,4.3-20.9,8.9-31.2,13.8c-20.5,9.7-40.5,20.6-59.6,32.8c-19.1,12.2-37.2,25.8-53.9,40.9
				c-16.7,15.1-32,31.8-44.9,50.1c-6.5,9.1-12.2,18.9-18.8,28.5c-6.5,9.5-13.3,18.9-20.4,28c-14.2,18.2-29.8,35.4-46.6,51.3
				c-16.9,15.8-35,30.3-54.5,42.8c-19.5,12.5-40.2,23.1-62,30.9c-21.8,7.9-44.5,13-67.5,14.9c-23,2-46.2,0.7-68.9-3.5
				c-22.6-4.3-44.7-11.2-65.7-20.5c-5.3-2.2-10.4-4.8-15.6-7.3c-5.1-2.7-10.2-5.3-15.2-8.1c-5-2.8-9.9-5.8-14.9-8.7
				c-2.4-1.5-4.8-3.1-7.3-4.6l-3.6-2.3l-3.6-2.4l-7.1-4.9l-7-5.1l-3.5-2.5l-3.4-2.6l-6.8-5.2c-9-7.2-17.9-14.5-26.4-22.2
				c-17.1-15.3-33.4-31.5-48.9-48.5l-1.9-2.1l1.9-2.3l53.4-66.7l26.8-33.3l26.8-33.2l107.7-132.6l1.3-1.7l2.1-0.4l104.2-21.4
				l52.1-10.5l52.1-10.4l52.2-10.3l52.2-10.2l52.2-10.1l52.2-10.1l1.6-0.3l1.4,0.6l71,30l70.9,30.1l35.4,15.1l35.4,15.2l35.4,15.3
				l37.2,16.2L1210.2,352.8z M1207.7,351.9l-33.8-13l-35.9-14l-35.9-14l-35.8-14.1l-71.6-28.4l-71.5-28.5l2.9,0.3l-52,10.9L822,262
				l-52.1,10.8l-52.1,10.7L665.7,294l-52.1,10.5l-104.3,20.7l3.5-2.1L403.7,454.5l-27.3,32.8l-27.4,32.7l-55,65.4l-0.1-4.4
				c15,17.2,30.7,33.7,47.4,49.2c8.3,7.8,17,15.2,25.7,22.5l6.7,5.3l3.4,2.6l3.4,2.5l6.8,5.1l7,4.9l3.5,2.4l3.6,2.3
				c2.4,1.6,4.7,3.1,7.1,4.7c4.9,3,9.6,6,14.6,8.8c4.9,2.9,10,5.4,15,8.1c5.1,2.5,10.2,5,15.4,7.3c10.4,4.6,21,8.8,31.9,12.1
				c10.8,3.4,21.9,6.1,33.1,8.1c11.2,2,22.5,3.2,33.8,3.6c11.3,0.4,22.7,0,33.9-1.1c22.5-2.4,44.7-7.9,65.7-16.2
				c21-8.3,41-19.1,59.7-31.8c9.3-6.4,18.4-13.2,27.1-20.3c8.7-7.2,17.1-14.8,25.2-22.7c16.2-15.8,31.2-32.8,45-50.7
				c6.9-9,13.6-18.1,20-27.5c6.4-9.2,12.2-19.1,19.1-28.6c13.6-18.9,29.5-36.1,46.8-51.6c17.3-15.4,36.2-29,55.8-41.2
				c19.6-12.2,40.2-22.8,61.2-32.2c10.5-4.7,21.1-9.1,31.9-13.3c10.7-4.1,21.6-7.9,32.5-11.5c21.8-7.2,44-13.2,66.3-18.3
				C1164,358.6,1185.7,354.5,1207.7,351.9z"/>
		</g>
		<g class="st8">
			<radialGradient id="SVGID_8_" cx="1033.3285" cy="739.2991" r="836.9652" gradientUnits="userSpaceOnUse">
				<stop  offset="0" style="stop-color:#CE9042;stop-opacity:0"/>
				<stop  offset="1" style="stop-color:#97B725"/>
			</radialGradient>
			<circle class="st9" cx="883.3" cy="883.3" r="592"/>
		</g>
	</g>
</g>
</svg>
