<?xml version="1.0" encoding="utf-8"?>
<!-- Generator: Adobe Illustrator 20.1.0, SVG Export Plug-In . SVG Version: 6.00 Build 0)  -->
<svg version="1.1" id="Layer_1" xmlns="http://www.w3.org/2000/svg" xmlns:xlink="http://www.w3.org/1999/xlink" x="0px" y="0px"
	 viewBox="0 0 2532.2 2532.2" style="enable-background:new 0 0 2532.2 2532.2;" xml:space="preserve">
<style type="text/css">
	.st0{fill:url(#SVGID_1_);}
	.st1{fill:url(#SVGID_2_);stroke:#CC375A;stroke-width:20;stroke-miterlimit:10;}
	.st2{clip-path:url(#SVGID_4_);}
	.st3{fill:url(#SVGID_5_);}
	.st4{fill:#C1365B;}
	.st5{fill:url(#SVGID_6_);}
	.st6{fill:#CC375A;}
	.st7{fill:url(#SVGID_7_);}
	.st8{opacity:0.14;fill:#8C4255;}
</style>
<radialGradient id="SVGID_1_" cx="1266.0786" cy="1266.0786" r="1266.0786" gradientUnits="userSpaceOnUse">
	<stop  offset="1.183421e-02" style="stop-color:#172742"/>
	<stop  offset="0.2959" style="stop-color:#243061;stop-opacity:0.7125"/>
	<stop  offset="0.7643" style="stop-color:#383F8E;stop-opacity:0.2385"/>
	<stop  offset="1" style="stop-color:#4044A0;stop-opacity:0"/>
</radialGradient>
<circle class="st0" cx="1266.1" cy="1266.1" r="1266.1"/>
<radialGradient id="SVGID_2_" cx="1430.0786" cy="1030.0786" r="939.6586" gradientUnits="userSpaceOnUse">
	<stop  offset="0" style="stop-color:#CE4747"/>
	<stop  offset="0.413" style="stop-color:#CB4548"/>
	<stop  offset="0.7115" style="stop-color:#C2404D"/>
	<stop  offset="0.9737" style="stop-color:#B23654"/>
	<stop  offset="1" style="stop-color:#B03555"/>
</radialGradient>
<circle class="st1" cx="1266.1" cy="1266.1" r="832"/>
<g>
	<defs>
		<circle id="SVGID_3_" cx="1266.1" cy="1266.1" r="832"/>
	</defs>
	<clipPath id="SVGID_4_">
		<use xlink:href="#SVGID_3_"  style="overflow:visible;"/>
	</clipPath>
	<g class="st2">
		<g>
			<linearGradient id="SVGID_5_" gradientUnits="userSpaceOnUse" x1="586.5853" y1="970.3204" x2="2070.2419" y2="663.4556">
				<stop  offset="0" style="stop-color:#D13C47"/>
				<stop  offset="0.3478" style="stop-color:#CD3C48"/>
				<stop  offset="0.6596" style="stop-color:#C33D4A"/>
				<stop  offset="0.9567" style="stop-color:#B03F4E"/>
				<stop  offset="1" style="stop-color:#AD3F4F"/>
			</linearGradient>
			<path class="st3" d="M1609.4,478.5c0,0-244,404-1000,156l-72,80.5c0,0,1204,779.5,1456,83.5S1609.4,478.5,1609.4,478.5z"/>
			<path class="st4" d="M1610.1,479.3c-2.9,4.8-5.9,9.4-9.2,14c-3.3,4.6-6.7,9.1-10.2,13.6c-7,8.9-14.4,17.4-22.2,25.7
				c-7.7,8.3-15.8,16.3-24.1,24c-8.3,7.7-16.9,15.2-25.7,22.3c-4.4,3.6-8.9,7.1-13.4,10.6l-6.8,5.1l-3.4,2.5l-3.5,2.5l-6.9,4.9
				l-7,4.8c-4.7,3.2-9.5,6.2-14.3,9.3c-19.2,12.1-39.2,23.1-59.6,33c-20.5,9.9-41.5,18.7-62.9,26.5c-21.4,7.8-43.2,14.4-65.2,20.2
				c-22,5.8-44.3,10.3-66.8,14.1l-8.4,1.4c-2.8,0.5-5.6,0.8-8.4,1.3c-5.6,0.8-11.3,1.6-16.9,2.3l-16.9,2c-2.8,0.4-5.7,0.6-8.5,0.8
				l-8.5,0.8l-8.5,0.8l-8.5,0.6c-5.7,0.4-11.3,0.8-17,1.1c-11.4,0.4-22.7,1-34.1,1.1l-8.5,0.1l-4.3,0.1l-4.3,0l-17-0.1
				c-5.7,0-11.4-0.3-17-0.4l-8.5-0.3c-2.8-0.1-5.7-0.2-8.5-0.4c-11.3-0.7-22.7-1.2-34-2.2l-17-1.4l-16.9-1.8
				c-11.3-1.1-22.5-2.7-33.8-4.1c-5.6-0.7-11.2-1.5-16.8-2.4l-16.8-2.6c-5.6-0.9-11.2-1.9-16.8-2.9c-5.6-1-11.2-1.9-16.7-3
				l-16.7-3.3l-8.3-1.7l-4.2-0.8l-4.1-0.9l-16.6-3.7c-5.5-1.3-11.1-2.4-16.5-3.8l-16.5-4c-5.5-1.3-11-2.7-16.5-4.2l-16.4-4.4
				c-5.5-1.5-10.9-2.9-16.4-4.5l-16.3-4.7c-5.4-1.6-10.9-3.1-16.3-4.8l-16.2-5.1c-5.4-1.7-10.8-3.3-16.2-5.1l-32.1-10.8l7.5-2
				l-73.2,79.4l-1.1-8.3c21.6,14.2,43.7,27.9,65.9,41.4c22.2,13.4,44.6,26.6,67.2,39.3c22.6,12.8,45.4,25.3,68.3,37.5
				c23,12.1,46,24.1,69.3,35.6c46.5,23.1,93.6,45.1,141.4,65.5c47.7,20.4,96.1,39.4,145,56.6c48.9,17.2,98.4,32.7,148.5,46
				c50,13.3,100.6,24.4,151.6,32.4c25.5,3.9,51.1,7.2,76.7,9.3c25.6,2.2,51.3,3.4,77,3.2c51.3-0.2,102.5-5.7,151.7-18.8
				c12.3-3.2,24.4-7.1,36.3-11.3l8.9-3.3c3-1.1,5.9-2.4,8.8-3.5l4.4-1.8l4.3-1.9c2.9-1.3,5.8-2.5,8.7-3.9
				c11.5-5.3,22.6-11.2,33.5-17.5l8.1-4.9c1.3-0.8,2.7-1.6,4-2.5l3.9-2.6l3.9-2.6c1.3-0.9,2.6-1.7,3.9-2.7l7.7-5.5
				c20.3-14.9,39.1-31.9,55.9-50.6c17-18.6,31.9-39.2,45.1-60.7c1.7-2.7,3.2-5.4,4.8-8.2c1.6-2.7,3.2-5.5,4.7-8.2l4.5-8.4l2.2-4.2
				l2.1-4.3l4.2-8.5c1.4-2.8,2.7-5.8,4-8.7c1.3-2.9,2.7-5.8,3.9-8.7l3.7-8.8c4.9-11.8,9.2-23.6,13.6-36l6.4-18.2
				c2-6.1,4.2-12.2,6.1-18.3c8-24.5,15.4-49.2,21.8-74.1c6.4-24.9,11.7-50,15.4-75.3c1.9-12.6,3.2-25.3,4.1-38
				c0.8-12.7,1.1-25.3,0.5-37.9c-0.2-3.1-0.3-6.3-0.6-9.4l-0.4-4.7l-0.5-4.7l-0.3-2.3l-0.3-2.3l-0.7-4.6l-0.8-4.6l-0.4-2.3l-0.5-2.3
				c-2.6-12.1-6.4-23.8-11.8-34.7c-5.3-10.9-12.4-20.8-21-29.1c-8.6-8.3-18.8-15.1-29.9-20c-11.1-4.9-23.1-8.2-35.5-10.1
				c-12.3-2-25-2.6-37.6-2.4c-25.4,0.6-50.8,4.5-75.9,10.2c-12.5,2.9-25,6.2-37.4,9.9c-12.4,3.7-24.7,7.7-36.8,12
				c-24.4,8.6-48.4,18.4-72.1,29c-11.8,5.3-23.6,10.8-35.2,16.5C1633,467.3,1621.4,473.2,1610.1,479.3z M1608.8,477.6
				c11.1-6.9,22.4-13.3,33.9-19.5c11.4-6.3,23-12.3,34.7-18.1c23.3-11.6,47.2-22.3,71.5-32c24.3-9.6,49.1-18.1,74.6-24.7
				c6.4-1.7,12.7-3.2,19.2-4.6c6.4-1.4,12.9-2.7,19.4-3.8c13-2.3,26.2-3.8,39.5-4.5c13.3-0.6,26.8-0.3,40.2,1.4
				c13.4,1.8,26.8,5,39.6,10.3c12.8,5.3,24.8,12.8,35.1,22.3c10.3,9.5,18.8,20.9,25.2,33.2c6.5,12.3,11,25.4,14.1,38.6l0.6,2.5
				l0.5,2.5l1,5l0.9,5l0.4,2.5l0.3,2.5l0.7,5l0.5,5c0.4,3.4,0.6,6.7,0.8,10.1c0.9,13.4,0.9,26.8,0.2,40.1
				c-0.7,13.3-1.9,26.5-3.6,39.6c-3.4,26.2-8.6,52.1-14.8,77.7c-3,12.8-6.5,25.5-10,38.1c-1.8,6.3-3.6,12.6-5.5,18.9l-2.9,9.4
				l-3,9.4c-1.9,6.3-4,12.5-6.1,18.7c-2.1,6.2-4.2,12.5-6.3,18.7l-3.2,9.2l-1.6,4.6l-0.4,1.1l-0.4,1.2l-0.9,2.3l-3.5,9.3
				c-0.6,1.5-1.1,3.1-1.8,4.6l-1.9,4.6l-3.8,9.2c-1.3,3.1-2.7,6.1-4,9.1c-1.4,3-2.7,6.1-4.1,9.1l-4.4,9l-2.2,4.5l-2.3,4.4l-4.7,8.8
				c-1.6,2.9-3.3,5.8-4.9,8.7c-1.7,2.9-3.2,5.8-5.1,8.6c-13.9,22.8-29.6,44.5-47.7,64.4l-3.4,3.7l-1.7,1.9l-1.8,1.8l-7,7.2
				c-1.2,1.2-2.4,2.4-3.6,3.5l-3.6,3.5l-3.6,3.5c-1.2,1.2-2.5,2.2-3.7,3.4l-7.5,6.7l-7.8,6.4c-1.3,1.1-2.6,2.1-3.9,3.2l-4,3l-4,3
				c-1.3,1-2.7,2-4,3c-10.8,7.9-22.1,15.1-33.7,21.9c-11.6,6.6-23.5,12.8-35.7,18.3c-24.3,11-49.6,19.7-75.4,26.3
				c-51.6,13.2-104.6,18.2-157.3,17.8c-26.3-0.1-52.6-1.6-78.8-4.1c-26.1-2.5-52.1-6.1-78-10.6c-25.8-4.4-51.4-9.8-76.9-15.9
				c-12.7-3-25.4-6.2-38-9.5c-12.6-3.4-25.2-6.9-37.7-10.6c-50.1-14.6-99.5-31.7-148.2-50.2c-48.7-18.6-96.8-38.7-144.3-59.9
				c-47.5-21.2-94.6-43.6-141.1-66.9c-23.3-11.7-46.4-23.5-69.5-35.6c-23.1-12.1-46-24.4-68.8-36.9c-22.8-12.5-45.5-25.2-68.1-38.2
				c-11.3-6.5-22.5-13-33.8-19.7c-11.2-6.6-22.4-13.3-33.5-20.2l-5.4-3.4l4.3-4.9l70.8-81.6l3-3.4l4.6,1.4l32.2,9.7
				c10.8,3.2,21.6,6.1,32.4,9.2c5.4,1.6,10.8,2.9,16.2,4.4l16.3,4.3c5.4,1.5,10.9,2.8,16.3,4.1l16.3,4c5.4,1.4,10.9,2.6,16.4,3.8
				l16.4,3.7c5.4,1.3,10.9,2.3,16.4,3.5l16.4,3.4l4.1,0.8l4.1,0.8l8.2,1.5l16.5,3.1l16.5,2.8c5.5,0.9,11,1.9,16.5,2.7l16.6,2.4
				c5.5,0.8,11,1.7,16.6,2.3c11.1,1.4,22.2,2.9,33.3,4l16.7,1.8l16.7,1.4c11.1,1.1,22.3,1.6,33.4,2.3c2.8,0.2,5.6,0.3,8.4,0.4
				l8.4,0.3l8.4,0.3l4.2,0.2l4.2,0.1l16.7,0.3l4.2,0.1l4.2,0l8.4-0.1c11.2,0,22.3-0.4,33.4-0.8c5.6-0.2,11.1-0.6,16.7-0.9l8.3-0.5
				l8.3-0.6l8.3-0.6c2.8-0.2,5.6-0.4,8.3-0.7l16.6-1.7c5.5-0.6,11.1-1.4,16.6-2.1c2.8-0.4,5.5-0.7,8.3-1.1l8.3-1.3
				c22-3.3,43.9-7.5,65.6-12.7c21.7-5.2,43.1-11.3,64.2-18.4c21.1-7.1,41.9-15.2,62.2-24.3c2.5-1.2,5.1-2.2,7.6-3.5l7.5-3.6
				c5.1-2.3,10-5,15-7.4c2.5-1.2,5-2.6,7.4-3.9l7.4-3.9c2.4-1.3,4.9-2.7,7.3-4.1c2.4-1.4,4.9-2.7,7.3-4.2
				c19.2-11.3,37.9-23.6,55.8-37c4.5-3.3,8.9-6.8,13.3-10.3c4.3-3.5,8.7-7,12.9-10.7c8.5-7.2,16.8-14.8,24.8-22.6
				c8-7.8,15.7-16,23.1-24.4c3.7-4.2,7.3-8.5,10.8-12.9c3.5-4.4,6.9-8.9,10-13.5l0.2-0.2L1608.8,477.6z"/>
		</g>
		<g>
			<linearGradient id="SVGID_6_" gradientUnits="userSpaceOnUse" x1="390.7314" y1="1469.9554" x2="2224.6128" y2="1469.9554">
				<stop  offset="0" style="stop-color:#AD3F4F"/>
				<stop  offset="4.331428e-02" style="stop-color:#B03F4E"/>
				<stop  offset="0.3404" style="stop-color:#C33D4A"/>
				<stop  offset="0.6522" style="stop-color:#CD3C48"/>
				<stop  offset="1" style="stop-color:#D13C47"/>
			</linearGradient>
			<path class="st5" d="M2138.2,1117.4L390.7,1404.3l146.6,418.2c0,0,1100.5-740.2,1687.2-597.6L2138.2,1117.4z"/>
			<g>
				<path class="st6" d="M2137.8,1118.6l-53.8,10.1l-54.4,10c-36.3,6.7-72.6,13.2-108.9,19.8l-109,19.4l-109,19l-109.1,18.8
					l-109.1,18.5l-109.2,18.3l-54.6,9.1l-54.6,9c-36.4,5.9-72.8,11.8-109.3,17.6c-36.4,5.8-72.9,11.4-109.4,17L938,1321.8
					l-109.5,16.5l-109.4,16.7l-54.7,8.5l-54.7,8.6l-54.6,8.7l-54.6,8.9l-109.2,18.1l2.7-4.6l18.5,52.2l18.6,52.2l37.5,104.2
					l75.7,208.3l-11.2-3.7c31.6-21.5,63.5-42.3,95.7-62.7c16.1-10.2,32.2-20.3,48.4-30.4c16.2-10,32.5-20,48.8-29.8
					c65.3-39.3,131.4-77.3,198.3-114c33.4-18.3,67-36.4,100.8-54c16.9-8.8,33.9-17.6,50.9-26.2c17-8.6,34.1-17.1,51.2-25.6
					c17.1-8.4,34.3-16.7,51.5-24.9c17.2-8.2,34.5-16.3,51.9-24.2c17.3-8,34.8-15.8,52.2-23.5c17.5-7.7,35-15.3,52.6-22.7
					c35.2-14.8,70.6-29.1,106.3-42.7c35.7-13.6,71.6-26.6,107.8-38.8c18.1-6.1,36.3-12,54.5-17.7c18.2-5.7,36.6-11.2,54.9-16.4
					c18.4-5.2,36.8-10.2,55.4-15c18.5-4.8,37.1-9.2,55.8-13.4c18.7-4.2,37.4-8.1,56.2-11.6c18.8-3.5,37.7-6.7,56.6-9.5
					c37.9-5.5,76-9.6,114.3-11.6c38.3-2,76.7-1.8,114.9,1.2c38.2,2.9,76.3,8.8,113.3,18.4l-3.8,6l-42.2-54.5L2137.8,1118.6z
					 M2138.7,1116.2l44.7,53.4l44.1,53l7,8.4l-10.8-2.5c-36.9-8.3-74.5-12.8-112.3-14.8c-37.7-1.9-75.6-0.9-113.3,1.9
					c-37.7,2.9-75.2,7.7-112.6,13.9c-18.7,3.1-37.2,6.7-55.8,10.5c-18.5,3.8-37,8-55.4,12.4c-36.8,8.9-73.3,18.9-109.6,29.8
					c-18.1,5.5-36.2,11.1-54.2,17c-18,5.9-36,11.9-53.9,18.2c-35.8,12.5-71.4,25.7-106.7,39.5c-35.3,13.8-70.4,28.1-105.3,43
					c-34.9,14.8-69.6,30.2-104.1,46c-34.5,15.7-68.8,32-103,48.5c-34.2,16.5-68.1,33.5-102,50.8c-33.8,17.3-67.5,34.9-100.9,52.9
					c-66.9,35.9-133.1,73.2-198.7,111.7c-16.4,9.6-32.7,19.3-49.1,29c-16.3,9.7-32.6,19.5-48.8,29.4c-16.2,9.9-32.4,19.9-48.5,29.9
					c-16.1,10.1-32.2,20.2-48,30.5l-8.2,5.3l-3.1-9l-71-209.9l-35.8-104.9l-18-52.4l-18.1-52.3l-1.4-3.9l4.1-0.7l109.2-17.8
					l54.6-9.1l54.6-9.2l54.6-9.3l54.5-9.5l109-19.2l109-19.4l109-19.3c36.3-6.4,72.7-12.7,109.1-18.8c36.4-6.2,72.8-12.3,109.2-18.3
					l54.6-9l54.6-8.8l109.3-17.6l109.3-17.3l109.4-17.1l109.4-16.8l109.5-16.5c36.5-5.4,73-10.8,109.5-16.1l54.8-7.9L2138.7,1116.2z
					"/>
			</g>
		</g>
		<g>
			<linearGradient id="SVGID_7_" gradientUnits="userSpaceOnUse" x1="1240.5527" y1="1941.1299" x2="2176.0168" y2="1662.7728">
				<stop  offset="0" style="stop-color:#D13C47"/>
				<stop  offset="0.3478" style="stop-color:#CD3C48"/>
				<stop  offset="0.6596" style="stop-color:#C33D4A"/>
				<stop  offset="0.9567" style="stop-color:#B03F4E"/>
				<stop  offset="1" style="stop-color:#AD3F4F"/>
			</linearGradient>
			<path class="st7" d="M2169.4,1394.5c0,0-668,132-976,776C1193.4,2170.5,2133.4,2194.5,2169.4,1394.5z"/>
			<g>
				<path class="st4" d="M2168.1,1396c-12.5,3.2-24.9,6.8-37.2,10.5c-12.8,3.9-25.6,8-38.2,12.3c-12.7,4.3-25.3,8.7-37.9,13.3
					c-12.6,4.6-25.1,9.3-37.5,14.3c-24.9,9.8-49.5,20.2-73.9,31.1l-18.2,8.3c-6,2.8-12.1,5.6-18.1,8.5c-12.1,5.7-24,11.6-36,17.6
					c-11.9,6-23.8,12.2-35.5,18.4c-5.9,3.2-11.8,6.3-17.6,9.5l-17.5,9.7c-23.2,13.1-46.2,26.8-68.7,40.9
					c-22.6,14.2-44.8,28.9-66.7,44.1c-21.9,15.3-43.4,31-64.6,47.1l-15.8,12.2c-5.3,4.1-10.4,8.3-15.7,12.4
					c-2.6,2.1-5.2,4.1-7.8,6.2l-7.7,6.4l-7.7,6.4l-3.9,3.2l-3.8,3.2c-20.4,17.1-40.4,34.9-59.9,53.1l-14.5,13.8
					c-2.4,2.3-4.8,4.6-7.2,7l-7.1,7c-9.6,9.3-18.7,19-28.1,28.6l-13.6,14.7l-6.8,7.4l-6.6,7.5c-4.4,5-8.9,10-13.2,15.1l-12.9,15.4
					c-4.3,5.1-8.5,10.3-12.7,15.6c-4.2,5.2-8.4,10.4-12.5,15.7c-8,10.7-16.3,21.2-24,32.2l-5.9,8.2c-1.9,2.7-3.9,5.4-5.8,8.2
					l-11.3,16.6c-1.9,2.8-3.8,5.5-5.6,8.3l-5.4,8.4c-3.6,5.6-7.3,11.2-10.8,16.9l-10.5,17.1l-5.2,8.6l-5,8.7l-10,17.4
					c-3.3,5.8-6.4,11.8-9.6,17.6c-6.5,11.7-12.4,23.7-18.5,35.6c-3.1,5.9-5.9,12-8.8,18l-8.6,18.1l-4.5-7.3c7.1,0,14.3-0.2,21.5-0.4
					c7.2-0.3,14.4-0.6,21.6-1c14.4-0.8,28.8-1.9,43.2-3.2c14.4-1.3,28.7-2.9,43-4.6c14.3-1.8,28.6-3.7,42.9-5.9
					c28.5-4.2,56.9-9.3,85.1-15.2c28.2-5.9,56.2-12.5,84-20.1c27.8-7.6,55.3-16,82.4-25.5c27.1-9.5,53.9-20,80.1-31.6l9.8-4.3
					c3.3-1.5,6.5-3,9.7-4.5c6.5-3.1,13-6,19.4-9.3l9.6-4.8c3.2-1.6,6.4-3.2,9.6-4.9l19-10.1l18.7-10.6l2.3-1.3l2.3-1.4l4.6-2.8
					l9.2-5.5l4.6-2.8c1.5-0.9,3-1.9,4.5-2.9l9-5.8c3-1.9,6-3.8,9-5.8l8.8-6.1c23.6-16.1,46.6-33.2,68.1-51.9
					c21.7-18.5,42.3-38.3,61.8-59.2l14.3-15.9l1.8-2l1.7-2.1l3.4-4.1l6.8-8.3l3.4-4.1l1.7-2.1l1.6-2.1l6.5-8.5l6.5-8.5l1.6-2.1
					c0.5-0.7,1-1.5,1.5-2.2l3.1-4.4c16.8-23.1,31.7-47.6,45.3-72.8c13.8-25.1,25.5-51.3,36.1-78l7.7-20.1c2.3-6.8,4.6-13.6,6.8-20.4
					l3.4-10.2l3-10.4c2-6.9,4-13.8,6-20.7l5.2-21l2.6-10.5l2.2-10.6l4.4-21.2c1.3-7.1,2.4-14.2,3.6-21.4c2.6-14.2,4.2-28.6,6.1-42.9
					l0.7-5.4c0.2-1.8,0.4-3.6,0.5-5.4l1-10.8L2168.1,1396z M2170.5,1393.2l-0.7,23.1l-0.3,10.9c-0.1,1.8-0.1,3.6-0.2,5.4l-0.4,5.4
					l-1.6,21.8c-0.3,3.6-0.4,7.3-0.9,10.9l-1.2,10.8c-0.9,7.2-1.6,14.5-2.5,21.7l-3.4,21.6l-1.7,10.8l-2.1,10.7l-4.3,21.5
					c-1.7,7.1-3.5,14.2-5.2,21.3l-2.6,10.7c-1,3.5-2,7-3,10.5c-2.1,7-4.1,14.1-6.2,21.1l-7.1,20.8l-1.8,5.2l-0.9,2.6l-1,2.6l-4,10.2
					l-4,10.3l-2,5.1c-0.7,1.7-1.5,3.4-2.2,5l-8.9,20.1l-1.1,2.5l-1.2,2.5l-2.4,4.9l-4.9,9.9c-1.6,3.3-3.2,6.6-4.9,9.9l-5.3,9.7
					l-5.3,9.7l-2.7,4.8c-0.9,1.6-1.9,3.2-2.8,4.7l-11.4,18.9c-0.9,1.6-2,3.1-3,4.6l-3.1,4.6l-6.1,9.2
					c-16.6,24.3-34.7,47.6-54.3,69.6c-19.7,21.9-40.7,42.6-62.9,62l-16.8,14.3l-17.3,13.7c-2.9,2.3-5.9,4.5-8.8,6.7l-8.9,6.6
					c-5.9,4.5-12,8.5-18,12.7l-9.1,6.2c-3.1,2-6.2,4-9.3,6l-9.3,6c-1.6,1-3.1,2-4.7,3l-4.7,2.8l-9.5,5.7l-4.7,2.8l-2.4,1.4l-2.4,1.3
					l-19.2,10.7l-19.5,10.2c-3.2,1.7-6.6,3.3-9.9,4.9l-9.9,4.8c-6.6,3.3-13.3,6.2-19.9,9.3c-3.3,1.5-6.7,3.1-10,4.5l-10.1,4.3
					c-27,11.5-54.4,21.8-82.2,31.1c-27.8,9.3-55.9,17.5-84.2,24.7c-28.3,7.2-56.8,13.6-85.6,18.9c-7.2,1.3-14.4,2.6-21.6,3.8
					c-7.2,1.1-14.4,2.3-21.6,3.4c-14.4,2.1-28.9,4.2-43.4,5.8c-14.5,1.7-29,3.1-43.5,4.4c-14.5,1.2-29.1,2.3-43.6,3.1
					c-14.6,0.8-29.1,1.3-43.7,1.6c-7.3,0.2-14.6,0.2-21.9,0.2c-7.3,0-14.6-0.1-22-0.3l-8.1-0.3l3.6-7.1l9.2-18
					c3.1-6,6.1-12,9.3-17.9l9.6-17.8l2.4-4.4c0.8-1.5,1.7-2.9,2.5-4.4l5-8.8c3.3-5.8,6.6-11.7,10-17.5l10.3-17.3l5.2-8.7l5.4-8.6
					l10.7-17.1c14.6-22.6,29.4-45,45.2-66.8c7.7-11,15.8-21.7,23.8-32.6c2-2.7,4.1-5.3,6.1-8l6.1-8c4.1-5.3,8.2-10.7,12.4-15.9
					l12.6-15.8c4.2-5.2,8.6-10.4,12.9-15.5l6.4-7.8l6.6-7.7l13.2-15.3c17.9-20.1,36.1-40,55-59.2c2.3-2.4,4.7-4.8,7.1-7.2l7.2-7.1
					l7.2-7.1l7.3-7c4.9-4.6,9.7-9.3,14.7-13.9l14.9-13.7c20.1-18,40.6-35.6,61.8-52.4c21.2-16.8,42.8-32.9,65-48.4
					c22.1-15.5,44.8-30.2,67.8-44.4c5.8-3.5,11.5-7.1,17.3-10.5c5.8-3.4,11.6-6.9,17.5-10.3l17.6-10l17.7-9.8l17.9-9.5
					c6-3.2,12-6.2,18-9.3c12-6.1,24.1-12,36.3-17.8c12.2-5.8,24.4-11.4,36.8-16.9c6.1-2.8,12.4-5.4,18.5-8.1
					c6.2-2.7,12.4-5.2,18.7-7.8c24.9-10.2,50.2-19.7,75.6-28.5c6.4-2.2,12.8-4.3,19.1-6.5c6.4-2.1,12.8-4.2,19.2-6.1
					c12.8-4,25.8-7.8,38.7-11.4c26-7.1,52.1-13.6,78.7-18.1L2170.5,1393.2z"/>
			</g>
		</g>
	</g>
</g>
<circle class="st8" cx="1266.1" cy="1266.1" r="832"/>
</svg>
