<?xml version="1.0" encoding="utf-8"?>
<!-- Generator: Adobe Illustrator 20.1.0, SVG Export Plug-In . SVG Version: 6.00 Build 0)  -->
<svg version="1.1" id="Layer_1" xmlns="http://www.w3.org/2000/svg" xmlns:xlink="http://www.w3.org/1999/xlink" x="0px" y="0px"
	 viewBox="0 0 3310 3310" style="enable-background:new 0 0 3310 3310;" xml:space="preserve">
<style type="text/css">
	.st0{fill:url(#SVGID_1_);}
	.st1{fill:url(#SVGID_2_);}
	.st2{fill:#DB7631;}
	.st3{clip-path:url(#SVGID_4_);}
	.st4{fill:url(#SVGID_5_);}
	.st5{fill:#DD6E24;}
	.st6{fill:none;}
	.st7{fill:url(#SVGID_6_);}
	.st8{fill:url(#SVGID_7_);}
	.st9{fill:url(#SVGID_8_);stroke:#DD6E24;stroke-width:33;stroke-miterlimit:10;}
	.st10{opacity:0.5;fill:url(#SVGID_9_);}
</style>
<radialGradient id="SVGID_1_" cx="1655.0143" cy="1655.0143" r="1655.0143" gradientUnits="userSpaceOnUse">
	<stop  offset="1.183421e-02" style="stop-color:#172742"/>
	<stop  offset="0.2959" style="stop-color:#243061;stop-opacity:0.7125"/>
	<stop  offset="0.7643" style="stop-color:#383F8E;stop-opacity:0.2385"/>
	<stop  offset="1" style="stop-color:#4044A0;stop-opacity:0"/>
</radialGradient>
<circle class="st0" cx="1655" cy="1655" r="1655"/>
<g>
	<radialGradient id="SVGID_2_" cx="1476.5612" cy="1124.7373" r="1116.9987" gradientUnits="userSpaceOnUse">
		<stop  offset="0" style="stop-color:#D88E21"/>
		<stop  offset="8.687258e-02" style="stop-color:#D88621"/>
		<stop  offset="0.326" style="stop-color:#D87721"/>
		<stop  offset="0.6026" style="stop-color:#D86E21"/>
		<stop  offset="1" style="stop-color:#D86B21"/>
	</radialGradient>
	<path class="st1" d="M1655,2776.7c-151.4,0-298.3-29.7-436.6-88.2c-66.5-28.1-130.6-62.9-190.5-103.4
		c-59.4-40.1-115.2-86.2-166-137c-50.8-50.8-96.8-106.6-137-166c-40.5-60-75.3-124.1-103.4-190.5c-58.5-138.3-88.2-285.2-88.2-436.6
		c0-151.4,29.7-298.3,88.2-436.6c28.1-66.5,62.9-130.6,103.4-190.5c40.1-59.4,86.2-115.2,137-166c50.8-50.8,106.6-96.8,166-137
		c60-40.5,124.1-75.3,190.5-103.4c138.3-58.5,285.2-88.2,436.6-88.2s298.3,29.7,436.6,88.2c66.5,28.1,130.6,62.9,190.5,103.4
		c59.4,40.1,115.2,86.2,166,137c50.8,50.8,96.8,106.6,137,166c40.5,60,75.3,124.1,103.4,190.5c58.5,138.3,88.2,285.2,88.2,436.6
		c0,151.4-29.7,298.3-88.2,436.6c-28.1,66.5-62.9,130.6-103.4,190.5c-40.1,59.4-86.2,115.2-137,166s-106.6,96.8-166,137
		c-60,40.5-124.1,75.3-190.5,103.4C1953.3,2747.1,1806.4,2776.7,1655,2776.7z"/>
	<path class="st2" d="M1655,542.3c614.5,0,1112.7,498.2,1112.7,1112.7S2269.5,2767.7,1655,2767.7S542.3,2269.5,542.3,1655
		S1040.5,542.3,1655,542.3 M1655,524.3c-76.7,0-153.4,7.7-227.9,23c-72.6,14.9-144,37-212.3,65.9c-67,28.3-131.6,63.4-192.1,104.3
		c-59.9,40.4-116.2,86.9-167.3,138.1c-51.2,51.2-97.6,107.5-138.1,167.3c-40.8,60.4-75.9,125.1-104.3,192.1
		c-28.9,68.2-51,139.7-65.9,212.3c-15.2,74.5-23,151.2-23,227.9s7.7,153.4,23,227.9c14.9,72.6,37,144,65.9,212.3
		c28.3,67,63.4,131.6,104.3,192.1c40.4,59.9,86.9,116.2,138.1,167.3c51.2,51.2,107.5,97.6,167.3,138.1
		c60.4,40.8,125.1,75.9,192.1,104.3c68.2,28.9,139.7,51,212.3,65.9c74.5,15.2,151.2,23,227.9,23s153.4-7.7,227.9-23
		c72.6-14.9,144-37,212.3-65.9c67-28.3,131.6-63.4,192.1-104.3c59.9-40.4,116.2-86.9,167.3-138.1c51.2-51.2,97.6-107.5,138.1-167.3
		c40.8-60.4,75.9-125.1,104.3-192.1c28.9-68.2,51-139.7,65.9-212.3c15.2-74.5,23-151.2,23-227.9s-7.7-153.4-23-227.9
		c-14.9-72.6-37-144-65.9-212.3c-28.3-67-63.4-131.6-104.3-192.1c-40.4-59.9-86.9-116.2-138.1-167.3
		c-51.2-51.2-107.5-97.6-167.3-138.1c-60.4-40.8-125.1-75.9-192.1-104.3c-68.2-28.9-139.7-51-212.3-65.9
		C1808.4,532,1731.7,524.3,1655,524.3L1655,524.3z"/>
</g>
<g>
	<defs>
		
			<ellipse id="SVGID_3_" transform="matrix(0.1335 -0.9911 0.9911 0.1335 -206.098 3074.312)" cx="1655" cy="1655" rx="1112.7" ry="1112.7"/>
	</defs>
	<clipPath id="SVGID_4_">
		<use xlink:href="#SVGID_3_"  style="overflow:visible;"/>
	</clipPath>
	<g class="st3">
		<g>
			<linearGradient id="SVGID_5_" gradientUnits="userSpaceOnUse" x1="663.21" y1="882.4302" x2="2724.0771" y2="882.4302">
				<stop  offset="0" style="stop-color:#D8432F"/>
				<stop  offset="0.24" style="stop-color:#D8502A"/>
				<stop  offset="0.6915" style="stop-color:#D86423"/>
				<stop  offset="1" style="stop-color:#D86B21"/>
			</linearGradient>
			<path class="st4" d="M686.1,1107.5c0,0,340.7-401.5,805.8-227.4s975.1,870.1,1212.1,258C2863.3,726.7,2038,286,1479.9,397
				S567.4,1010.9,686.1,1107.5z"/>
			<path class="st5" d="M686,1104.9c1.5-1.8,4.2-5.2,8.4-9.9c6.5-7.4,16.3-18.1,29.6-31.6c13.4-13.4,30.4-29.6,51.3-47.5
				c10.5-8.9,21.9-18.3,34.5-28c12.5-9.7,26.1-19.7,40.7-29.7c29.3-20.1,63-40.8,101.5-60c19.3-9.6,39.7-18.8,61.4-27.4
				c21.7-8.5,44.5-16.4,68.6-23.2c24-6.8,49.3-12.5,75.5-16.8c3.3-0.5,6.6-1.1,9.9-1.6c3.3-0.4,6.7-0.9,10-1.3
				c3.3-0.4,6.7-0.9,10.1-1.3c3.4-0.3,6.8-0.7,10.2-1c1.7-0.2,3.4-0.3,5.1-0.5c1.7-0.2,3.4-0.4,5.1-0.5c3.4-0.2,6.9-0.5,10.4-0.7
				c6.9-0.6,13.9-0.8,20.9-1.1c28.1-1,57.1-0.3,86.5,2.6c29.4,2.9,59.4,7.9,89.4,15.1c3.8,0.9,7.5,1.9,11.3,2.8
				c1.9,0.5,3.8,0.9,5.7,1.4c1.9,0.5,3.7,1.1,5.6,1.6c7.5,2.1,15.1,4.1,22.6,6.6c7.5,2.4,15.1,4.7,22.6,7.4c3.8,1.3,7.5,2.6,11.3,4
				l2.8,1l2.9,1.1c1.8,0.7,3.7,1.4,5.5,2.1c3.6,1.3,7.5,2.9,11.2,4.4c3.8,1.5,7.5,3,11.2,4.6c7.5,3.1,14.9,6.3,22.3,9.6
				c14.9,6.6,29.7,13.6,44.4,21c59.1,29.6,117.3,64.8,175.4,103.2c58.1,38.4,116,79.9,175.1,122.4c59,42.4,119.2,85.8,182.5,126.5
				c31.7,20.3,64.2,39.8,97.9,57.4c16.9,8.8,34.1,17.2,51.6,24.7c8.8,3.8,17.7,7.4,26.6,10.8c9,3.4,18,6.6,27.2,9.4
				c9.2,2.9,18.4,5.5,27.7,7.8c9.3,2.2,18.8,4.2,28.2,5.7c19,3,38.2,4.5,57.5,3.5c9.6-0.4,19.2-1.5,28.7-3.1
				c2.4-0.5,4.7-0.8,7.1-1.3l7-1.6l7-1.8c2.3-0.6,4.6-1.4,6.9-2.1c18.3-5.8,35.9-14.2,52.1-24.8c16.3-10.6,31.2-23.3,44.7-37.3
				c1.7-1.7,3.3-3.6,5-5.4c1.7-1.8,3.3-3.6,4.9-5.5l4.8-5.6l4.6-5.7l2.3-2.9l2.2-2.9l4.5-5.9c2.8-4,5.8-7.9,8.5-12.1
				c11-16.3,21.1-33.4,30.1-51c9-17.6,17.2-35.8,24.8-54.2l2.8-6.9l2.7-7l2.6-6.9l2.5-7.1c0.9-2.4,1.6-4.7,2.3-7
				c0.7-2.3,1.5-4.6,2.1-7l2-7.1l1.8-7.1c0.6-2.4,1.1-4.8,1.6-7.2c0.5-2.4,1-4.8,1.4-7.2l1.2-7.2l1-7.3c1.2-9.7,2-19.5,2.2-29.3
				c0.9-39.2-6.9-78.2-20.8-114.9c-13.9-36.7-33.7-71.1-56.9-102.9c-1.4-2-2.9-4-4.4-5.9c-1.5-2-2.9-3.9-4.5-5.9
				c-3.1-3.9-6-7.8-9.2-11.6c-6.2-7.7-12.6-15.1-19.2-22.5c-13.2-14.7-26.9-28.8-41.2-42.4c-28.6-27.2-59.1-52.3-90.9-75.5
				c-31.7-23.3-64.8-44.7-98.5-64.6c-67.5-39.7-138.2-73-210-100.4c-71.8-27.4-144.8-49.1-217.7-64.9
				c-72.9-15.8-145.7-25.9-217.1-29.7c-71.4-3.7-141.6-1-208.6,9.1c-4.2,0.6-8.4,1.3-12.5,2c-4.2,0.7-8.3,1.4-12.4,2.2
				c-2.1,0.4-4.1,0.8-6.2,1.1l-1.5,0.3l-1.5,0.3l-3.2,0.6c-4.2,0.8-8.5,1.7-12.5,2.5c-8.1,1.7-16.3,3.5-24.4,5.4
				c-8.1,1.9-16.2,3.9-24.2,5.9c-32.1,8.1-63.4,17.6-93.7,28c-30.4,10.4-59.8,22-88.3,34.3c-28.5,12.3-56,25.5-82.4,39.3
				c-52.9,27.6-101.7,57.8-146.3,89.1c-22.3,15.7-43.5,31.7-63.7,47.8c-20.2,16.1-39.2,32.5-57.3,48.8
				c-72,65.3-127.1,130.9-164.3,189.8c-9.3,14.7-17.5,29.1-24.5,42.9c-7,13.8-12.9,27.1-17.6,39.7c-4.7,12.6-8.2,24.6-10.4,35.7
				c-2.2,11.1-3.2,21.4-3.1,30.6c0.1,9.2,1.5,17.2,3.6,23.8c2.1,6.6,4.9,11.8,7.5,15.7c2.6,3.9,5.1,6.5,6.8,8.2
				C685.1,1104.1,685.6,1104.6,686,1104.9z M685,1108.9c0,0-1-0.8-3-2.5c-1.9-1.7-4.7-4.3-7.8-8.4c-3.1-4-6.4-9.5-9-16.5
				c-2.6-7-4.6-15.5-5.2-25.2c-1.5-19.5,2.1-43.4,10.5-70c8.4-26.6,21.7-55.8,39.5-86.7c35.6-61.8,89.2-130.8,160.6-199.7
				c35.7-34.4,75.9-68.9,120.7-102c44.7-33.3,94-65.2,147.6-94.7c26.9-14.7,54.8-28.7,83.8-41.9c29-13.2,59.1-25.5,90.2-36.7
				c31.1-11.3,63.2-21.4,96.2-30.2c8.3-2.2,16.6-4.3,24.9-6.4c8.4-2,16.8-4,25.3-5.9c4.3-1,8.4-1.8,12.6-2.7l3.1-0.7l3.3-0.7
				c2.2-0.4,4.3-0.8,6.5-1.3c4.3-0.9,8.6-1.6,13-2.4c4.3-0.8,8.7-1.5,13.1-2.2c69.9-11.3,142.7-14.3,216.5-10.4
				c73.8,3.9,148.6,14.8,223.3,31.7c74.6,17,149.1,40,222.2,69c73.1,29,145,63.9,213.7,105.6c34.3,20.8,67.8,43.5,100,68.1
				c16.1,12.3,31.9,25.1,47.2,38.4c15.3,13.4,30.3,27.3,44.7,41.7c14.4,14.5,28.2,29.6,41.5,45.2c6.6,7.9,13,15.8,19.2,24
				c3.2,4,6.2,8.2,9.2,12.3c1.5,2.1,3,4.2,4.5,6.3c1.5,2.1,3,4.2,4.4,6.3c23.2,33.9,42.8,70.6,56.3,109.8
				c6.7,19.6,11.9,39.7,15,60.2c1.5,10.2,2.7,20.6,3.3,30.9c0.5,10.3,0.5,20.7,0.1,31.1c-0.5,10.3-1.6,20.6-3.1,30.9
				c-1.5,10.2-3.7,20.3-6.3,30.3l-2,7.5l-2.3,7.4c-0.7,2.5-1.6,4.9-2.4,7.4c-0.8,2.4-1.7,5-2.6,7.3l-2.7,7l-2.9,7.1l-2.9,7l-3,7
				c-8,18.6-16.6,36.9-26.2,54.8c-9.5,17.9-20,35.2-31.5,51.9l-2.2,3.1l-2.2,3.1l-4.5,6.1l-4.6,6l-2.3,3l-2.4,2.9l-4.8,5.9l-5,5.7
				c-1.6,1.9-3.4,3.8-5.1,5.6c-1.7,1.8-3.4,3.7-5.2,5.5c-14.2,14.5-29.7,27.7-46.8,38.7c-17,11.1-35.5,19.8-54.8,26
				c-19.3,6.2-39.4,9.6-59.4,10.7c-10,0.6-20.1,0.5-30,0c-10-0.5-19.9-1.5-29.8-3c-9.8-1.5-19.6-3.3-29.2-5.5
				c-9.6-2.2-19.2-4.7-28.6-7.5c-37.8-11.1-73.8-26.5-108.6-43.3c-17.4-8.5-34.5-17.3-51.3-26.6c-16.8-9.2-33.4-18.7-49.7-28.3
				c-32.7-19.4-64.5-39.4-95.7-59.7c-31.2-20.3-61.9-40.7-92-61c-60.4-40.6-119.1-80.6-177-117.9c-58-37.2-115.2-71.8-172.6-100.9
				c-14.3-7.3-28.7-14.2-43-20.7c-7.2-3.3-14.3-6.4-21.5-9.4c-3.6-1.5-7.2-3.1-10.7-4.5c-3.6-1.4-7-2.9-10.7-4.3
				c-1.8-0.7-3.7-1.4-5.5-2.1l-1.4-0.5c-0.6-0.2-0.8-0.3-1.3-0.5l-2.7-1c-3.6-1.3-7.2-2.6-10.8-3.9c-7.1-2.7-14.4-4.9-21.5-7.3
				c-7.1-2.5-14.4-4.4-21.5-6.6c-1.8-0.5-3.6-1.1-5.4-1.6c-1.8-0.5-3.6-0.9-5.4-1.4c-3.6-0.9-7.2-1.9-10.8-2.8
				c-28.7-7.2-57.2-12.4-85.2-15.7c-28.1-3.2-55.7-4.5-82.7-4c-6.7,0.2-13.4,0.2-20.1,0.7c-3.3,0.2-6.6,0.3-9.9,0.5
				c-1.7,0.1-3.3,0.2-4.9,0.3c-1.6,0.1-3.3,0.3-4.9,0.4c-3.3,0.3-6.5,0.5-9.8,0.8c-3.2,0.3-6.5,0.7-9.7,1c-3.2,0.4-6.4,0.7-9.6,1.1
				c-3.2,0.4-6.4,0.9-9.5,1.3c-25.3,3.5-49.8,8.5-73.2,14.3c-23.4,5.9-45.8,12.9-67.1,20.5c-21.3,7.6-41.5,15.9-60.6,24.7
				c-38.2,17.4-72,36.3-101.7,54.9c-14.8,9.3-28.6,18.5-41.4,27.4c-12.8,9-24.5,17.7-35.3,26c-21.6,16.7-39.2,31.7-53.3,44.2
				c-14,12.6-24.4,22.6-31.3,29.5l-11.4,11.9L685,1108.9z"/>
		</g>
		<circle class="st6" cx="1655" cy="1655" r="1112.7"/>
		<g>
			<radialGradient id="SVGID_6_" cx="1444.6711" cy="1297.4343" r="993.6452" gradientUnits="userSpaceOnUse">
				<stop  offset="0" style="stop-color:#D86B21"/>
				<stop  offset="1" style="stop-color:#D8602F"/>
			</radialGradient>
			<path class="st7" d="M567.8,1342.1c0,0,321-597.1,855.1-267s438,1113.1,1038.1,1083.1s339-249,339-249l-201,555.1l-357,252
				c0,0-777.1,195-909.1-822.1s-828.1-459-828.1-459L567.8,1342.1z"/>
			<radialGradient id="SVGID_7_" cx="1646.1179" cy="1853.4343" r="1076.5337" gradientUnits="userSpaceOnUse">
				<stop  offset="0" style="stop-color:#D88E21"/>
				<stop  offset="8.687258e-02" style="stop-color:#D88621"/>
				<stop  offset="0.326" style="stop-color:#D87721"/>
				<stop  offset="0.6026" style="stop-color:#D86E21"/>
				<stop  offset="1" style="stop-color:#D86B21"/>
			</radialGradient>
			<path class="st8" d="M566.2,1341.1c4-7.2,8.2-14.3,12.6-21.3c4.4-7,8.8-14,13.4-20.9c9.1-13.8,18.7-27.3,28.6-40.5
				c19.8-26.4,40.9-51.9,63.4-76.2c45-48.4,95.4-92.1,151.5-127.2c3.5-2.2,7.1-4.3,10.6-6.4l5.3-3.2c1.8-1.1,3.6-2,5.4-3.1l10.8-6.1
				l11-5.8c1.8-1,3.7-1.9,5.5-2.9l5.6-2.7c3.7-1.8,7.4-3.6,11.2-5.4c7.6-3.3,15.1-6.9,22.8-9.9c15.3-6.4,31-11.7,46.8-16.6l12-3.4
				c2-0.5,4-1.2,6-1.6l6-1.5c4-1,8-2,12.1-2.9l12.2-2.4c2-0.4,4.1-0.8,6.1-1.2l6.1-1l12.3-2l12.4-1.5l6.2-0.7l1.5-0.2l1.6-0.1
				l3.1-0.2l12.4-0.9l3.1-0.2l3.1-0.1l6.2-0.2l6.2-0.2l3.1-0.1l1.6-0.1l1.6,0l12.4,0.1l6.2,0.1c2.1,0.1,4.1,0.2,6.2,0.3l12.4,0.7
				l3.1,0.2l3.1,0.3l6.2,0.6c4.1,0.4,8.3,0.8,12.4,1.2l12.3,1.7l6.2,0.9c1,0.1,2.1,0.3,3.1,0.4l3.1,0.6l12.3,2.2l6.1,1.1
				c2,0.4,4.1,0.9,6.1,1.4c32.5,7,64.3,17,95.1,29.2c30.9,12.3,60.8,26.8,89.7,43.1l21.5,12.6c0.9,0.5,1.8,1,2.7,1.6l2.6,1.6
				l5.3,3.3c3.5,2.1,7,4.4,10.5,6.7c14,9,27.7,18.4,41.1,28.2c26.8,19.7,52.4,40.9,76.7,63.6c24.3,22.7,47.4,46.7,69.1,71.8
				c21.8,25.1,42.3,51.3,61.7,78.3c19.4,27,37.7,54.7,55.1,82.9c17.4,28.2,33.8,57,49.7,86.1c31.7,58.2,60.9,117.5,90.1,176.7
				c29.2,59.1,58.4,118.2,91.1,175c16.3,28.4,33.6,56.2,52.2,82.9c18.7,26.7,38.8,52.3,60.9,76c22.1,23.6,46.1,45.4,72.3,64
				c26.1,18.7,54.3,34.3,84,46.3c29.7,12,60.9,20.4,92.6,25.5c31.7,5.1,64.1,7,96.4,6.4c4-0.1,8.1-0.1,12.1-0.3l12.1-0.5l24.7-1.5
				l24.5-1.7c8.2-0.6,16.3-1.4,24.5-2.1c32.6-3,65.1-6.8,97.2-12.1l12-2c4-0.7,8-1.5,12-2.3c8-1.4,15.9-3.2,23.8-4.9
				c15.8-3.6,31.4-7.6,46.8-12.3c15.3-4.7,30.3-10.3,44.6-16.8c14.3-6.5,27.8-14.3,39.5-23.5c5.8-4.7,11.1-9.7,15.6-15.2
				c4.6-5.4,8.2-11.3,10.8-17.5c2.6-6.2,4.1-12.6,4.5-19.3c0.4-6.6-0.3-13.5-2-20.3c-1.7-6.8-4.3-13.6-7.5-20.2
				c-1.6-3.3-3.4-6.6-5.3-9.8c-2-3.2-4-6.4-6.2-9.5c-4.4-6.2-9.2-12.2-14.3-18c-2.6-2.9-5.2-5.7-8-8.4c-1.4-1.4-2.7-2.7-4.1-4
				l-2.1-1.9c-0.7-0.6-1.4-1.3-1.9-1.7l23.2-6.2l-199.2,555.7l-1.7,4.8l-4.3,3.1l-355.9,253.7l-2.8,2l-3.4,0.8
				c-2.1,0.5-3.8,0.9-5.6,1.3c-1.8,0.4-3.6,0.8-5.3,1.1c-3.5,0.7-7.1,1.4-10.6,2.1c-7,1.3-14.1,2.4-21.1,3.5
				c-14.1,2.1-28.1,3.7-42.2,5c-14.1,1.3-28.2,2.1-42.4,2.7c-7.1,0.2-14.1,0.5-21.2,0.5c-3.5,0-7.1,0.1-10.6,0.1l-10.6-0.1
				c-3.5,0-7.1-0.2-10.6-0.3c-3.5-0.1-7.1-0.2-10.6-0.4l-10.6-0.5l-5.3-0.3l-5.3-0.4l-10.6-0.8c-3.5-0.3-7.1-0.7-10.6-1
				c-3.5-0.4-7.1-0.6-10.6-1.1l-10.6-1.3c-28.1-3.5-56.1-8.5-83.7-15.2c-55.2-13.4-109-33.3-159.4-60c-50.4-26.7-97.2-60-139.2-98.5
				c-20.9-19.4-40.6-39.9-59.2-61.4l-13.5-16.4c-2.2-2.8-4.6-5.4-6.7-8.3l-6.4-8.5l-6.4-8.5l-3.2-4.2l-3.1-4.4l-12.2-17.4
				c-2.1-2.9-3.9-5.9-5.9-8.8l-5.8-8.9l-5.8-8.9l-1.4-2.2l-1.4-2.3l-2.7-4.6l-10.9-18.2l-1.3-2.3l-1.3-2.3l-2.5-4.6l-5.1-9.3
				c-7-12.3-13.1-25-19.5-37.6l-2.4-4.7l-2.2-4.8l-4.4-9.6l-4.4-9.6l-2.2-4.8l-1.1-2.4l-1-2.4c-22.5-51.6-40.8-104.9-55.7-158.9
				c-14.9-54-26.5-108.8-35.3-163.9c-2.2-13.8-4.5-27.5-6.2-41.4l-2.8-20.7l-1.4-10.4l-1.3-10.2c-1.7-13.8-3.5-27.2-5.4-40.8
				l-3.1-20.3l-3.3-20.3c-9.1-54-20.7-107.5-36.3-159.8c-15.6-52.2-34.9-103.5-60.6-151.3c-12.8-23.9-27.3-46.9-43.6-68.4
				c-16.4-21.5-34.6-41.5-55-59.2c-20.3-17.7-42.7-33-66.8-45.2c-12-6.1-24.5-11.4-37.2-15.8c-12.7-4.5-25.8-8.1-39-10.9
				c-26.5-5.6-53.7-8-81-7.4c-13.6,0.3-27.2,1.2-40.8,2.7c-13.6,1.6-27.1,3.7-40.5,6.5c-13.4,2.7-26.7,5.9-40,9.6
				c-13.2,3.7-26.3,7.8-39.3,12.4c-25.9,9.1-51.3,19.8-76.1,31.8c-24.8,11.9-49,25.1-72.6,39.4c-11.8,7.1-23.4,14.5-34.8,22.2
				c-11.4,7.7-22.7,15.6-33.5,24l-12,9.3l8.5-12.5L566.2,1341.1z M569.5,1343.1l-62.7,93.3l-3.5-3.2c11-8.7,22.2-16.7,33.6-24.6
				c11.4-7.9,23-15.4,34.8-22.8c23.5-14.7,47.7-28.2,72.5-40.7c24.8-12.4,50.3-23.6,76.3-33.3c13-4.9,26.2-9.3,39.5-13.3
				c13.3-4,26.8-7.6,40.4-10.6c13.6-3,27.4-5.5,41.2-7.5c13.8-1.9,27.8-3.2,41.8-3.8c28-1.2,56.2,0.5,84,5.6
				c27.7,5.1,54.9,13.8,80.5,25.9c25.6,12,49.7,27.5,71.6,45.5c21.9,18,41.6,38.5,59.4,60.5c17.7,22.1,33.4,45.5,47.4,70l5.2,9.2
				l5,9.3c1.7,3.1,3.3,6.2,4.9,9.3c1.6,3.1,3.2,6.2,4.8,9.4c3.1,6.3,6.2,12.6,9.1,19c3,6.4,5.8,12.8,8.6,19.2
				c11.1,25.8,20.8,52.1,29.5,78.7c17.4,53.2,30.6,107.6,41.2,162.4l3.8,20.6l3.5,20.6c2.3,13.8,4.5,27.7,6.4,41.3l1.5,10.3
				l1.6,10.2l3.1,20.3c1.9,13.6,4.4,27,6.8,40.5c9.7,53.9,21.8,107.2,36.9,159.6c15.1,52.4,33.4,103.7,55.4,153.3l1,2.3l1.1,2.3
				l2.2,4.6l4.3,9.2l4.3,9.2l2.2,4.6l2.3,4.5c6.2,12,12.1,24.2,18.9,35.9l4.9,8.9l2.5,4.4l1.2,2.2l1.3,2.2l10.5,17.3l2.6,4.3
				l1.3,2.2l1.4,2.1l5.5,8.5l5.5,8.5c1.9,2.8,3.6,5.7,5.6,8.4l11.7,16.5l2.9,4.1l3.1,4l6.1,8c8,10.8,16.8,21,25.3,31.4
				c17.6,20.3,36.3,39.6,55.9,57.8l15,13.4c5.1,4.3,10.3,8.6,15.4,12.8l3.9,3.2c1.3,1,2.7,2,4,3.1l8,6.1c2.7,2,5.3,4.1,8,6.1
				l8.2,5.8c21.8,15.5,44.6,29.6,68.2,42.2c47.3,25.1,97.8,44.2,149.9,57.1c26.1,6.5,52.5,11.4,79.2,14.9l10,1.3
				c3.3,0.4,6.7,0.7,10,1.1c3.3,0.3,6.7,0.7,10,1l10.1,0.8l5,0.4l5,0.3l10.1,0.6c3.4,0.2,6.7,0.3,10.1,0.4c3.4,0.1,6.7,0.3,10.1,0.3
				l10.1,0.2c3.4,0.1,6.7,0,10.1,0c6.7,0.1,13.5-0.2,20.2-0.3c13.5-0.4,26.9-1.1,40.4-2.2c13.4-1.1,26.8-2.5,40.1-4.4
				c6.6-0.9,13.3-1.9,19.8-3.1c3.3-0.6,6.6-1.2,9.8-1.8c1.6-0.3,3.2-0.7,4.8-1c1.5-0.3,3.3-0.7,4.5-1l-6.2,2.8l358.2-250.4l-6,7.9
				l202.8-554.4l7.3-19.9l15.9,13.6c1.1,0.9,1.9,1.6,2.7,2.4l2.5,2.3c1.6,1.5,3.2,3.1,4.8,4.6c3.1,3.1,6.1,6.3,9,9.6
				c5.8,6.6,11.3,13.5,16.4,20.8c2.6,3.6,4.9,7.4,7.3,11.3c2.3,3.9,4.5,7.8,6.4,12c4,8.2,7.3,16.9,9.5,26.1c2.2,9.2,3.2,19,2.6,28.8
				c-0.6,9.8-2.9,19.6-6.8,28.6c-3.9,9-9.2,17.2-15.2,24.4c-6.1,7.2-12.9,13.5-19.9,19.1c-14.3,11-29.7,19.7-45.4,26.8
				c-15.8,7.1-31.8,12.9-48.1,17.8c-16.2,4.9-32.6,9-49,12.6c-8.2,1.7-16.4,3.5-24.7,4.9c-4.1,0.7-8.2,1.5-12.4,2.2l-12.4,2
				c-33,5.3-66.1,9-99.2,11.8c-8.3,0.6-16.6,1.4-24.9,1.9l-24.9,1.6l-24.7,1.3c-4.3,0.2-8.4,0.3-12.7,0.5c-4.2,0.2-8.4,0.2-12.6,0.3
				c-33.6,0.4-67.4-1.8-100.8-7.5c-33.4-5.6-66.3-14.7-97.7-27.7c-31.4-13-61.2-29.7-88.6-49.7c-27.5-19.9-52.4-42.9-75.2-67.6
				c-22.8-24.8-43.3-51.4-62.2-78.9c-18.9-27.5-36.3-56-52.6-84.9c-32.7-57.9-61.6-117.4-90.4-176.8c-14.4-29.7-28.7-59.4-43.3-88.9
				c-14.6-29.5-29.5-58.9-44.9-87.9c-15.4-29-31.5-57.7-48.3-85.9c-16.9-28.2-34.6-55.8-53.4-82.7
				c-37.5-53.7-79.6-104.3-126.9-149.7c-23.7-22.7-48.6-44-74.7-63.8c-13.1-9.9-26.5-19.4-40.1-28.4c-3.4-2.3-6.8-4.5-10.3-6.7
				l-5.2-3.3l-2.6-1.7l-2.6-1.6l-21-12.7c-28.4-16.5-57.7-31.3-88-43.8c-30.3-12.6-61.5-22.8-93.5-30.1c-2-0.5-4-1-6-1.4l-6-1.2
				l-12.1-2.4l-3-0.6c-1-0.2-2-0.3-3-0.5l-6.1-0.9l-12.2-1.8l-12.2-1.3l-6.1-0.7l-3.1-0.3l-3.1-0.2l-12.3-0.8
				c-2-0.1-4.1-0.3-6.1-0.4l-6.1-0.1l-12.3-0.3l-1.5,0l-1.5,0l-3.1,0.1l-6.1,0.1l-6.1,0.1l-3.1,0.1l-3.1,0.2l-12.3,0.8l-3.1,0.2
				l-1.5,0.1l-1.5,0.2l-6.1,0.7l-12.2,1.3l-12.2,1.8l-6.1,0.9c-2,0.3-4,0.8-6,1.1l-12.1,2.3c-4,0.8-8,1.8-12,2.7l-6,1.4
				c-2,0.4-4,1.1-6,1.6l-11.9,3.3c-15.7,4.7-31.3,9.9-46.6,16.1c-7.7,2.9-15.1,6.4-22.7,9.6c-3.7,1.7-7.4,3.5-11.1,5.3l-5.6,2.7
				c-1.8,0.9-3.7,1.9-5.5,2.8l-11,5.7l-10.8,6c-1.8,1-3.6,2-5.4,3l-5.3,3.2c-3.5,2.1-7.1,4.2-10.6,6.4c-6.9,4.4-13.9,8.8-20.7,13.4
				c-6.9,4.5-13.5,9.4-20.2,14.2c-13.2,9.8-26.2,19.9-38.8,30.5c-12.5,10.7-24.8,21.6-36.7,33c-11.9,11.4-23.4,23.2-34.6,35.3
				c-11.2,12.1-22,24.5-32.6,37.1c-10.5,12.7-20.7,25.6-30.5,38.9c-9.8,13.2-19.3,26.7-28.3,40.4c-4.5,6.9-9,13.8-13.3,20.8
				C577.7,1328.8,573.5,1335.9,569.5,1343.1L569.5,1343.1z"/>
		</g>
		
			<radialGradient id="SVGID_8_" cx="1013.9307" cy="2324.4224" r="666.2979" gradientTransform="matrix(0.9568 0.2907 -0.2907 0.9568 785.5007 -235.3679)" gradientUnits="userSpaceOnUse">
			<stop  offset="0" style="stop-color:#D8432F"/>
			<stop  offset="0.24" style="stop-color:#D8502A"/>
			<stop  offset="0.6915" style="stop-color:#D86423"/>
			<stop  offset="1" style="stop-color:#D86B21"/>
		</radialGradient>
		<path class="st9" d="M539.4,1620.5c0,0,544.9-252.5,387.4,431.2s703.6,945.3,703.6,945.3l-923-209.3l-385.1-535L539.4,1620.5z"/>
		
			<radialGradient id="SVGID_9_" cx="1313.5311" cy="1298.7661" r="1676.9447" gradientTransform="matrix(0.9911 0.1335 -0.1335 0.9911 268.1249 -203.5232)" gradientUnits="userSpaceOnUse">
			<stop  offset="0" style="stop-color:#D86B21;stop-opacity:0"/>
			<stop  offset="0.3014" style="stop-color:#D85A27;stop-opacity:0.3014"/>
			<stop  offset="0.6994" style="stop-color:#D8492D;stop-opacity:0.6994"/>
			<stop  offset="1" style="stop-color:#D8432F"/>
		</radialGradient>
		<circle class="st10" cx="1655" cy="1655" r="1112.7"/>
	</g>
</g>
</svg>
