<?xml version="1.0" encoding="utf-8"?>
<!-- Generator: Adobe Illustrator 20.1.0, SVG Export Plug-In . SVG Version: 6.00 Build 0)  -->
<svg version="1.1" id="Layer_1" xmlns="http://www.w3.org/2000/svg" xmlns:xlink="http://www.w3.org/1999/xlink" x="0px" y="0px"
	 viewBox="0 0 1000 1000" style="enable-background:new 0 0 1000 1000;" xml:space="preserve">
<style type="text/css">
	.st0{fill:#232F49;}
	.st1{opacity:0.5;fill:#FFFFFF;}
	.st2{opacity:0.6;}
	.st3{fill:#FFFFFF;}
</style>
<rect class="st0" width="1000" height="1000"/>
<polygon class="st1" points="288.4,620.1 285,616.1 279.8,616.6 282.5,612.2 280.4,607.3 285.5,608.6 289.4,605.1 289.8,610.3 
	294.4,613 289.5,615 "/>
<polygon class="st1" points="234,473.5 229.2,471.4 224.8,474.3 225.2,469 221.1,465.7 226.2,464.5 228.1,459.6 230.9,464.1 
	236.1,464.4 232.7,468.4 "/>
<polygon class="st1" points="404,655.5 399.2,653.4 394.8,656.3 395.2,651 391.1,647.7 396.2,646.5 398.1,641.6 400.9,646.1 
	406.1,646.4 402.7,650.4 "/>
<polygon class="st1" points="174.8,835.3 170.4,832.4 165.5,834.5 166.8,829.4 163.4,825.4 168.7,825.1 171.4,820.6 173.3,825.5 
	178.4,826.7 174.4,830 "/>
<polygon class="st1" points="106,306.5 101.2,304.4 96.8,307.3 97.2,302 93.1,298.7 98.2,297.5 100.1,292.6 102.9,297.1 
	108.1,297.4 104.7,301.4 "/>
<polygon class="st1" points="529,405.5 524.2,403.4 519.8,406.3 520.2,401 516.1,397.7 521.2,396.5 523.1,391.6 525.9,396.1 
	531.1,396.4 527.7,400.4 "/>
<polygon class="st1" points="661.7,197.8 657.7,194.3 652.6,195.7 654.6,190.8 651.8,186.4 657,186.8 660.4,182.7 661.6,187.9 
	666.5,189.8 662,192.5 "/>
<polygon class="st1" points="817,383.5 812.2,381.4 807.8,384.3 808.2,379 804.1,375.7 809.2,374.5 811.1,369.6 813.9,374.1 
	819.1,374.4 815.7,378.4 "/>
<polygon class="st1" points="836.2,378.2 832.9,374.1 827.6,374.5 830.5,370.1 828.5,365.2 833.6,366.5 837.6,363.1 837.9,368.4 
	842.4,371.2 837.4,373 "/>
<polygon class="st1" points="848,935.5 843.2,933.4 838.8,936.3 839.2,931 835.1,927.7 840.2,926.5 842.1,921.6 844.9,926.1 
	850.1,926.4 846.7,930.4 "/>
<polygon class="st1" points="759,736.5 754.2,734.4 749.8,737.3 750.2,732 746.1,728.7 751.2,727.5 753.1,722.6 755.9,727.1 
	761.1,727.4 757.7,731.4 "/>
<polygon class="st1" points="918.2,777.2 914.9,773.1 909.7,773.5 912.5,769.1 910.5,764.2 915.6,765.6 919.6,762.1 919.9,767.4 
	924.4,770.1 919.5,772 "/>
<polygon class="st1" points="519.4,936.5 515.1,933.4 510.2,935.2 511.8,930.2 508.5,926 513.8,926 516.8,921.6 518.4,926.6 
	523.5,928.1 519.2,931.2 "/>
<polygon class="st1" points="437.6,869.8 433.7,866.3 428.5,867.6 430.6,862.8 427.8,858.3 433.1,858.8 436.5,854.7 437.6,859.9 
	442.5,861.9 438,864.5 "/>
<polygon class="st1" points="192,78.5 187.2,76.4 182.8,79.3 183.2,74 179.1,70.7 184.2,69.5 186.1,64.6 188.9,69.1 194.1,69.4 
	190.7,73.4 "/>
<g class="st2">
	<g>
		<path class="st3" d="M619.8,330.3c1.9,0,1.9-3,0-3C617.9,327.3,617.9,330.3,619.8,330.3L619.8,330.3z"/>
	</g>
</g>
<g class="st2">
	<g>
		<path class="st3" d="M556,65.5c1.9,0,1.9-3,0-3C554.1,62.5,554.1,65.5,556,65.5L556,65.5z"/>
	</g>
</g>
<g class="st2">
	<g>
		<path class="st3" d="M626,551.5c1.9,0,1.9-3,0-3C624.1,548.5,624.1,551.5,626,551.5L626,551.5z"/>
	</g>
</g>
<g class="st2">
	<g>
		<path class="st3" d="M691,597.5c1.9,0,1.9-3,0-3C689.1,594.5,689.1,597.5,691,597.5L691,597.5z"/>
	</g>
</g>
<g class="st2">
	<g>
		<path class="st3" d="M720,533.5c1.9,0,1.9-3,0-3C718.1,530.5,718.1,533.5,720,533.5L720,533.5z"/>
	</g>
</g>
<g class="st2">
	<g>
		<path class="st3" d="M455,748.5c1.9,0,1.9-3,0-3C453.1,745.5,453.1,748.5,455,748.5L455,748.5z"/>
	</g>
</g>
<g class="st2">
	<g>
		<path class="st3" d="M83,630.5c1.9,0,1.9-3,0-3C81.1,627.5,81.1,630.5,83,630.5L83,630.5z"/>
	</g>
</g>
<g class="st2">
	<g>
		<path class="st3" d="M49,585.5c1.9,0,1.9-3,0-3C47.1,582.5,47.1,585.5,49,585.5L49,585.5z"/>
	</g>
</g>
<g class="st2">
	<g>
		<path class="st3" d="M193,340.5c1.9,0,1.9-3,0-3C191.1,337.5,191.1,340.5,193,340.5L193,340.5z"/>
	</g>
</g>
<g class="st2">
	<g>
		<path class="st3" d="M221,311.5c1.9,0,1.9-3,0-3C219.1,308.5,219.1,311.5,221,311.5L221,311.5z"/>
	</g>
</g>
<g class="st2">
	<g>
		<path class="st3" d="M104.1,71.1c1.9,0,1.9-3,0-3C102.2,68.1,102.2,71.1,104.1,71.1L104.1,71.1z"/>
	</g>
</g>
<g class="st2">
	<g>
		<path class="st3" d="M128.1,110.1c1.9,0,1.9-3,0-3C126.2,107.1,126.2,110.1,128.1,110.1L128.1,110.1z"/>
	</g>
</g>
<g class="st2">
	<g>
		<path class="st3" d="M402.6,443.1c1.9,0,1.9-3,0-3C400.7,440.1,400.7,443.1,402.6,443.1L402.6,443.1z"/>
	</g>
</g>
<g class="st2">
	<g>
		<path class="st3" d="M378.6,545.1c1.9,0,1.9-3,0-3C376.7,542.1,376.7,545.1,378.6,545.1L378.6,545.1z"/>
	</g>
</g>
<g class="st2">
	<g>
		<path class="st3" d="M303.6,494.1c1.9,0,1.9-3,0-3C301.7,491.1,301.7,494.1,303.6,494.1L303.6,494.1z"/>
	</g>
</g>
<g class="st2">
	<g>
		<path class="st3" d="M504.6,96.6c1.9,0,1.9-3,0-3C502.7,93.6,502.7,96.6,504.6,96.6L504.6,96.6z"/>
	</g>
</g>
<g class="st2">
	<g>
		<path class="st3" d="M423.6,165.6c1.9,0,1.9-3,0-3C421.7,162.6,421.7,165.6,423.6,165.6L423.6,165.6z"/>
	</g>
</g>
<g class="st2">
	<g>
		<path class="st3" d="M831.6,284.1c1.9,0,1.9-3,0-3C829.6,281.1,829.6,284.1,831.6,284.1L831.6,284.1z"/>
	</g>
</g>
<g class="st2">
	<g>
		<path class="st3" d="M924.6,162.6c1.9,0,1.9-3,0-3C922.6,159.6,922.6,162.6,924.6,162.6L924.6,162.6z"/>
	</g>
</g>
<g class="st2">
	<g>
		<path class="st3" d="M825.6,81.6c1.9,0,1.9-3,0-3C823.6,78.6,823.6,81.6,825.6,81.6L825.6,81.6z"/>
	</g>
</g>
<g class="st2">
	<g>
		<path class="st3" d="M935.1,959.1c1.9,0,1.9-3,0-3C933.1,956.1,933.1,959.1,935.1,959.1L935.1,959.1z"/>
	</g>
</g>
<g class="st2">
	<g>
		<path class="st3" d="M897.6,677.1c1.9,0,1.9-3,0-3C895.6,674.1,895.6,677.1,897.6,677.1L897.6,677.1z"/>
	</g>
</g>
<g class="st2">
	<g>
		<path class="st3" d="M891.6,545.1c1.9,0,1.9-3,0-3C889.6,542.1,889.6,545.1,891.6,545.1L891.6,545.1z"/>
	</g>
</g>
<g class="st2">
	<g>
		<path class="st3" d="M465.6,855.6c1.9,0,1.9-3,0-3C463.7,852.6,463.7,855.6,465.6,855.6L465.6,855.6z"/>
	</g>
</g>
<g class="st2">
	<g>
		<path class="st3" d="M500.1,849.6c1.9,0,1.9-3,0-3C498.2,846.6,498.2,849.6,500.1,849.6L500.1,849.6z"/>
	</g>
</g>
<g class="st2">
	<g>
		<path class="st3" d="M435.6,848.1c1.9,0,1.9-3,0-3C433.7,845.1,433.7,848.1,435.6,848.1L435.6,848.1z"/>
	</g>
</g>
<g class="st2">
	<g>
		<path class="st3" d="M350.1,950.1c1.9,0,1.9-3,0-3C348.2,947.1,348.2,950.1,350.1,950.1L350.1,950.1z"/>
	</g>
</g>
<g class="st2">
	<g>
		<path class="st3" d="M507.6,980.1c1.9,0,1.9-3,0-3C505.7,977.1,505.7,980.1,507.6,980.1L507.6,980.1z"/>
	</g>
</g>
<g class="st2">
	<g>
		<path class="st3" d="M180.6,813.6c1.9,0,1.9-3,0-3C178.7,810.6,178.7,813.6,180.6,813.6L180.6,813.6z"/>
	</g>
</g>
<g class="st2">
	<g>
		<path class="st3" d="M156.6,789.6c1.9,0,1.9-3,0-3C154.7,786.6,154.7,789.6,156.6,789.6L156.6,789.6z"/>
	</g>
</g>
<polygon class="st1" points="989,122.5 984.2,120.4 979.8,123.3 980.2,118 976.1,114.7 981.2,113.5 983.1,108.6 985.9,113.1 
	991.1,113.4 987.7,117.4 "/>
<polygon class="st1" points="23,448.5 18.2,446.4 13.8,449.3 14.2,444 10.1,440.7 15.2,439.5 17.1,434.6 19.9,439.1 25.1,439.4 
	21.7,443.4 "/>
</svg>
