<?xml version="1.0" encoding="utf-8"?>
<!-- Generator: Adobe Illustrator 20.1.0, SVG Export Plug-In . SVG Version: 6.00 Build 0)  -->
<svg version="1.1" id="Layer_1" xmlns="http://www.w3.org/2000/svg" xmlns:xlink="http://www.w3.org/1999/xlink" x="0px" y="0px"
	 viewBox="0 0 818.1 818.1" style="enable-background:new 0 0 818.1 818.1;" xml:space="preserve">
<style type="text/css">
	.st0{fill:url(#SVGID_1_);}
	.st1{fill:url(#SVGID_2_);}
	.st2{fill:#D8C032;}
	.st3{clip-path:url(#SVGID_4_);}
	.st4{fill:url(#SVGID_5_);}
	.st5{fill:#DBB331;}
	.st6{opacity:0.5;clip-path:url(#SVGID_4_);}
	.st7{fill:url(#SVGID_6_);}
</style>
<radialGradient id="SVGID_1_" cx="409.0356" cy="409.0356" r="409.0356" gradientUnits="userSpaceOnUse">
	<stop  offset="1.183421e-02" style="stop-color:#172742"/>
	<stop  offset="0.2959" style="stop-color:#243061;stop-opacity:0.7125"/>
	<stop  offset="0.7643" style="stop-color:#383F8E;stop-opacity:0.2385"/>
	<stop  offset="1" style="stop-color:#4044A0;stop-opacity:0"/>
</radialGradient>
<circle class="st0" cx="409" cy="409" r="409"/>
<g>
	<radialGradient id="SVGID_2_" cx="507.7253" cy="421.372" r="255.0001" gradientUnits="userSpaceOnUse">
		<stop  offset="0" style="stop-color:#CEA928"/>
		<stop  offset="1" style="stop-color:#CE9042"/>
	</radialGradient>
	<path class="st1" d="M409,664c-68.1,0-132.1-26.5-180.3-74.7C180.6,541.2,154,477.1,154,409s26.5-132.1,74.7-180.3
		S340.9,154,409,154c68.1,0,132.1,26.5,180.3,74.7S664,340.9,664,409s-26.5,132.1-74.7,180.3C541.2,637.5,477.1,664,409,664z"/>
	<path class="st2" d="M409,161c137,0,248,111,248,248S546,657,409,657S161,546,161,409S272.1,161,409,161 M409,147
		c-35.4,0-69.7,6.9-102,20.6c-31.2,13.2-59.2,32.1-83.3,56.1c-24.1,24.1-42.9,52.1-56.1,83.3C154,339.4,147,373.7,147,409
		s6.9,69.7,20.6,102c13.2,31.2,32.1,59.2,56.1,83.3s52.1,42.9,83.3,56.1c32.3,13.7,66.6,20.6,102,20.6s69.7-6.9,102-20.6
		c31.2-13.2,59.2-32.1,83.3-56.1c24.1-24.1,42.9-52.1,56.1-83.3c13.7-32.3,20.6-66.6,20.6-102s-6.9-69.7-20.6-102
		c-13.2-31.2-32.1-59.2-56.1-83.3c-24.1-24.1-52.1-42.9-83.3-56.1C478.7,154,444.4,147,409,147L409,147z"/>
</g>
<g>
	<defs>
		
			<ellipse id="SVGID_3_" transform="matrix(0.5608 -0.828 0.828 0.5608 -159.0021 518.3316)" cx="409.1" cy="409" rx="248" ry="248"/>
	</defs>
	<clipPath id="SVGID_4_">
		<use xlink:href="#SVGID_3_"  style="overflow:visible;"/>
	</clipPath>
	<g class="st3">
		
			<linearGradient id="SVGID_5_" gradientUnits="userSpaceOnUse" x1="-5486.4644" y1="3993.7095" x2="-5406.5923" y2="4372.542" gradientTransform="matrix(0.5438 -0.8392 0.8392 0.5438 -96.2535 -6467.9673)">
			<stop  offset="0" style="stop-color:#CEA628"/>
			<stop  offset="1" style="stop-color:#E08028"/>
		</linearGradient>
		<path class="st4" d="M200.3,161c0,0,242.2-89.9,259.9,86.7c20,200,212.1,257.4,258.1,215.8v91.8c0,0-262,108.1-374-47.6
			c-124.4-172.9-261.5-196-279.2-154L200.3,161z"/>
		<path class="st5" d="M200.1,160.5c13.8-5.4,28-9.8,42.4-13.6c14.4-3.8,29-6.8,43.7-8.9c14.8-2.1,29.7-3.3,44.7-3.3
			c15,0,30.1,1.5,44.9,5.1c7.4,1.8,14.7,4.1,21.7,7.1c7.1,3,13.9,6.7,20.2,11.1c6.4,4.4,12.3,9.5,17.5,15.2
			c5.2,5.7,9.8,12.1,13.7,18.8c0.9,1.7,1.9,3.4,2.8,5.1l2.5,5.2c1.5,3.6,3,7.1,4.1,10.8l0.9,2.7c0.3,0.9,0.5,1.8,0.8,2.8
			c0.5,1.9,1.1,3.7,1.5,5.6l1.3,5.6c0.4,1.9,0.7,3.8,1,5.6c0.7,3.8,1.1,7.5,1.6,11.3c0.4,3.5,0.8,7.3,1.3,10.9
			c0.6,3.6,1,7.1,1.7,10.7l1,5.4l1.1,5.3c2.9,14.2,7,28.2,12.1,41.8c5.1,13.5,11.3,26.7,18.6,39.2c3.6,6.3,7.5,12.4,11.7,18.3
			c4.2,5.9,8.6,11.7,13.3,17.2c4.7,5.5,9.6,10.9,14.8,16c5.2,5.1,10.6,10,16.2,14.6c11.2,9.3,23.4,17.5,36.2,24.5
			c12.8,7,26.3,12.8,40.3,17c7,2.1,14.1,3.7,21.3,4.9c7.2,1.2,14.5,1.9,21.7,1.8c7.3,0,14.5-0.8,21.5-2.6c6.9-1.9,13.6-4.8,18.9-9.5
			l3-2.7l0,4l0.1,45.9c0,7.6,0,15.3,0.1,22.9l0.2,22.9l0,1.5l-1.3,0.5c-14.7,5.9-29.6,11-44.8,15.6c-15.1,4.6-30.4,8.6-45.9,12
			c-15.4,3.4-31.1,6.1-46.8,8.2c-15.7,2-31.6,3.3-47.5,3.4c-15.9,0.2-31.9-0.5-47.8-2.7c-7.9-1-15.8-2.5-23.7-4.2
			c-7.8-1.7-15.6-3.9-23.3-6.3c-7.7-2.5-15.2-5.5-22.5-8.8c-7.4-3.3-14.5-7.2-21.5-11.3c-6.9-4.2-13.6-8.9-20-13.9
			c-3.1-2.6-6.3-5.1-9.3-7.9c-1.5-1.4-3-2.7-4.5-4.1l-4.3-4.3c-5.6-5.9-11-12-15.8-18.5l-1.8-2.4l-1.8-2.4l-3.5-4.7
			c-2.3-3.2-4.7-6.2-7-9.3c-9.5-12.3-19.5-24.3-29.8-35.9c-10.4-11.6-21.2-22.7-32.5-33.4c-11.3-10.6-23.1-20.7-35.4-30.2
			c-12.3-9.4-25.1-18.1-38.4-25.9c-13.3-7.7-27.2-14.5-41.6-19.8c-7.2-2.6-14.5-4.8-21.9-6.5c-7.4-1.7-14.9-2.8-22.3-3
			c-7.4-0.2-14.8,0.4-21.4,2.7c-6.6,2.2-12.1,6.3-14.6,11.9l-8.5-4.7l17.2-23.9l17.2-23.9l17.2-23.8l17.3-23.8l17.3-23.8l17.4-23.7
			l17.4-23.7l17.6-23.8L200.1,160.5z M200.7,161.5l-16.2,24.4l-16.3,24.5l-16.4,24.4l-16.5,24.4l-16.5,24.4l-16.5,24.3l-16.5,24.3
			l-16.6,24.3l-26.8,39.2l18.4-43.9c1.8-4.4,4.8-8.3,8.4-11.3c1.8-1.5,3.7-2.7,5.7-3.9c2-1,4-2,6.1-2.7c8.3-3,16.8-3.8,25.1-3.7
			c8.3,0.1,16.5,1.2,24.4,2.9c8,1.7,15.8,3.9,23.4,6.5c15.3,5.3,29.9,12.2,43.8,20.1c13.9,7.9,27.3,16.8,40,26.4
			c12.7,9.6,24.9,19.9,36.5,30.9c5.8,5.4,11.5,11.1,17,16.7c5.5,5.7,10.9,11.6,16.2,17.5c10.6,11.9,20.6,24.2,30.2,36.9
			c2.4,3.2,4.8,6.4,7.1,9.6l3.5,4.8l0.9,1.2l0.9,1.2l1.7,2.3c4.5,6.2,9.5,11.9,14.7,17.5l4,4.1c1.3,1.4,2.8,2.6,4.1,3.9
			c2.7,2.7,5.7,5,8.6,7.5c6,4.7,12.1,9.2,18.6,13.3c6.5,4,13.2,7.7,20.1,10.9c6.9,3.2,14,6.1,21.3,8.6c7.3,2.4,14.7,4.6,22.2,6.4
			c7.5,1.7,15.1,3.3,22.7,4.4c7.6,1.1,15.3,2,23.1,2.6c7.7,0.6,15.5,0.9,23.2,1c7.8,0,15.5-0.1,23.3-0.4c7.8-0.4,15.5-0.9,23.3-1.7
			c15.5-1.5,31-3.8,46.4-6.7c15.4-2.9,30.6-6.5,45.7-10.6c7.5-2.1,15.1-4.3,22.5-6.7c7.4-2.4,14.9-4.9,22.1-7.8l-1.3,2l0.2-22.9
			c0.1-7.6,0.1-15.3,0.1-22.9l0.1-45.9l3,1.3c-5.8,5.2-13,8.4-20.3,10.4c-7.3,2-14.9,2.8-22.4,2.9c-7.5,0.2-15-0.4-22.5-1.5
			c-7.4-1.1-14.8-2.6-22-4.6c-14.5-3.9-28.5-9.4-41.8-16.2c-13.4-6.8-26.1-14.8-38-23.9c-11.9-9.2-23-19.4-33.1-30.6
			c-5.1-5.6-9.8-11.5-14.3-17.5c-2.3-3-4.4-6.1-6.6-9.2c-2.1-3.2-4.2-6.3-6.1-9.5c-2-3.2-3.8-6.5-5.7-9.8c-0.9-1.7-1.8-3.3-2.6-5
			l-1.3-2.5l-1.2-2.5c-3.4-6.8-6.3-13.7-9.1-20.7c-5.4-14.1-9.7-28.6-12.7-43.4l-1.1-5.5l-0.9-5.6c-0.7-3.7-1.1-7.5-1.7-11.2
			c-0.5-3.8-0.8-7.3-1.3-11.1c-0.5-3.6-0.8-7.1-1.4-10.7c-0.3-1.8-0.5-3.5-0.9-5.3l-1.1-5.2c-0.4-1.7-0.9-3.4-1.4-5.2
			c-0.2-0.9-0.4-1.7-0.7-2.6l-0.8-2.5c-2.2-6.7-4.9-13.3-8.3-19.5c-6.8-12.4-16.2-23.1-27.8-31.3c-11.5-8.2-24.8-14-38.7-17.7
			c-7-1.9-14.1-3.2-21.2-4.2c-7.2-1-14.4-1.5-21.7-1.8c-14.6-0.6-29.2,0.2-43.8,1.7c-14.6,1.5-29.1,4-43.6,7
			c-7.2,1.5-14.4,3.2-21.5,5.1C214.7,157.3,207.7,159.3,200.7,161.5z"/>
	</g>
	<g class="st6">
		
			<radialGradient id="SVGID_6_" cx="-5327.5693" cy="4215.8853" r="248" gradientTransform="matrix(0.5608 -0.828 0.828 0.5608 -22.5296 -6332.3999)" gradientUnits="userSpaceOnUse">
			<stop  offset="0" style="stop-color:#CE9042;stop-opacity:0"/>
			<stop  offset="1" style="stop-color:#B8C925"/>
		</radialGradient>
		<circle class="st7" cx="409" cy="409" r="248"/>
	</g>
</g>
</svg>
